<svg width="17" height="19" viewBox="0 0 17 19" fill="none" xmlns="http://www.w3.org/2000/svg">
<path d="M14.3858 8.38944V6.9038C14.3858 3.62182 11.7252 0.961243 8.44323 0.961243C5.16125 0.961243 2.50068 3.62182 2.50068 6.9038V8.38944C2.4638 9.30537 2.04748 10.1647 1.35153 10.7613C0.732911 11.2884 0.345447 12.0369 0.272217 12.8464C0.272217 14.7034 3.32669 15.8176 8.44323 15.8176C13.5598 15.8176 16.6143 14.7034 16.6143 12.8464C16.541 12.0369 16.1536 11.2884 15.5349 10.7613C14.839 10.1647 14.4227 9.30537 14.3858 8.38944Z" fill="url(#paint0_linear_59_267)"/>
<path d="M5.65332 16.9366C6.03559 18.156 7.16549 18.9859 8.44342 18.9859C9.72136 18.9859 10.8513 18.156 11.2335 16.9366C10.3598 17.0011 9.43144 17.0343 8.44342 17.0343C7.4554 17.0343 6.527 17.003 5.65332 16.9366Z" fill="#9E6CD5"/>
<defs>
<linearGradient id="paint0_linear_59_267" x1="8.44323" y1="0.961243" x2="8.44323" y2="15.8176" gradientUnits="userSpaceOnUse">
<stop stop-color="#A870D9"/>
<stop offset="1" stop-color="#8461C9"/>
</linearGradient>
</defs>
</svg>
