<svg xmlns="http://www.w3.org/2000/svg" width="253.609" height="57.945" viewBox="0 0 253.609 57.945">
  <g id="Layer_2" data-name="Layer 2" transform="translate(0.237 0.372)">
    <g id="Layer_1" data-name="Layer 1" transform="translate(-0.237 -0.372)">
      <text id="MACH_LOG" data-name="MACH LOG" transform="translate(61.609 39.226)" fill="#fff" font-size="28" font-family="EthnocentricRg-Regular, Ethnocentric" letter-spacing="-0.05em"><tspan x="0" y="0">M</tspan><tspan y="0" letter-spacing="-0.15em">A</tspan><tspan y="0">CH </tspan><tspan y="0" letter-spacing="-0.07em">L</tspan><tspan y="0">OG</tspan></text>
      <path id="Path_26" data-name="Path 26" d="M28.176,0A28.625,28.625,0,1,0,57.419,27.962,28.625,28.625,0,0,0,28.176,0Zm1.145,51.525a22.381,22.381,0,1,1,.011,0Z" transform="translate(0.297 0.425)" fill="#fff"/>
      <g id="Group_25" data-name="Group 25" transform="translate(0.568 4.39)" opacity="0.1">
        <path id="Path_27" data-name="Path 27" d="M51.613,25.673A22.9,22.9,0,0,0,8.55,15.528,22.9,22.9,0,0,1,47.8,38.886a22.728,22.728,0,0,0,3.813-13.213Z" transform="translate(0.943 -3.462)" fill="#fff"/>
        <path id="Path_28" data-name="Path 28" d="M30.6,53.655A28.625,28.625,0,0,1,4.852,11.29,28.625,28.625,0,1,0,53.915,40.728,28.625,28.625,0,0,1,30.6,53.655Z" transform="translate(-0.259 -2.327)" fill="#fff"/>
      </g>
      <g id="Group_26" data-name="Group 26" transform="translate(5.519)" opacity="0.3">
        <path id="Path_29" data-name="Path 29" d="M26.765,1.016a28.625,28.625,0,0,1,23.85,45.342A28.625,28.625,0,1,0,4.93,11.928,28.545,28.545,0,0,1,26.765,1.016Z" transform="translate(-4.533 0.372)" fill="#fff"/>
        <path id="Path_30" data-name="Path 30" d="M4.591,28.166A22.9,22.9,0,0,0,45.96,41.059,22.9,22.9,0,0,1,9.64,13.27a22.751,22.751,0,0,0-5.049,14.9Z" transform="translate(-4.583 2.35)" fill="#fff"/>
      </g>
      <g id="Group_27" data-name="Group 27" transform="translate(0 5.486)" opacity="0.4">
        <path id="Path_31" data-name="Path 31" d="M50.695,26.622A22.9,22.9,0,0,0,8.33,15.275,22.9,22.9,0,0,1,46.939,39.686,22.637,22.637,0,0,0,50.695,26.622Z" transform="translate(1.479 -4.419)" fill="#fff"/>
        <path id="Path_32" data-name="Path 32" d="M29.713,54.74a28.625,28.625,0,0,1-25.1-43.43A28.625,28.625,0,1,0,53.128,41.652,28.625,28.625,0,0,1,29.713,54.74Z" transform="translate(0.237 -3.42)" fill="#fff"/>
      </g>
      <path id="Path_33" data-name="Path 33" d="M15.644,22.1c.195,1.717.435,3.286.676,4.66s.481,2.633.7,3.71.447,2.061.641,2.943.4,1.729.607,2.553q.08-1.145.24-2.473c.1-.847.24-1.832.412-2.943s.389-2.382.676-3.79.618-3.034,1.053-4.878c1.248-5.393,2-8.015,3.3-12.721A15.767,15.767,0,0,1,25.09,6.027c.412-.779.824-.962,1.328-1s.939.172,1.351,1.03a14.484,14.484,0,0,1,1.053,4.214c1.683,13.213,3.435,26.782,3.1,40.132a21.113,21.113,0,0,1-3.916.355c-.458-5.313-.847-8.7-1.534-15.354-.286-2.714-.527-5.175-.71-7.328s-.332-4.225-.447-6.183c-.3,1.683-.641,3.572-1,5.725s-.8,4.786-1.237,7.82a82.073,82.073,0,0,0-1.214,10.385,20.9,20.9,0,0,1-.149,2.21,4.969,4.969,0,0,1-.252,1.145c-.1.24-.24.389-.4.424a1.145,1.145,0,0,1-.561,0,2.29,2.29,0,0,1-.63-.332,3.733,3.733,0,0,1-.687-.744,12.526,12.526,0,0,1-.836-1.363,22.9,22.9,0,0,1-1.145-2.29,70.325,70.325,0,0,1-3.79-10.1c-.435-1.477-.779-2.817-1.042-4.007s-.469-2.29-.618-3.206-.275-1.8-.343-2.565-.126-1.488-.16-2.187c-.309,1.683-.55,3.435-.71,5.336a41.655,41.655,0,0,0-.046,6.137c.332,5.553,1,7.729,3.286,11.576A19.465,19.465,0,0,1,11.007,43.3c-6.87-7.832-5.049-21.48.218-29.518a24.583,24.583,0,0,1,2.508-3.687A6.343,6.343,0,0,1,15.6,8.614c.389-.252.572-.16.572.3s-.3,1.019-.492,2.13A34.911,34.911,0,0,0,15.644,22.1Z" transform="translate(1.219 1.155)" fill="#fff"/>
      <path id="Path_34" data-name="Path 34" d="M45.731,36.373a23.221,23.221,0,0,1-2.805,5,24.491,24.491,0,0,1-3.561,3.813,22.224,22.224,0,0,1-9.515,4.866,133.2,133.2,0,0,0,0-44.506,19.934,19.934,0,0,1,3.584,1.145c3.286,9.538,4.03,22.156,2.359,32.06a48.261,48.261,0,0,0,9.939-2.382Z" transform="translate(4.6 1.231)" fill="#fff"/>
    </g>
  </g>
</svg>
