<svg xmlns="http://www.w3.org/2000/svg" width="315.728" height="71.224" viewBox="0 0 315.728 71.224">
  <g id="Layer_2" data-name="Layer 2" transform="translate(0.237 0.372)">
    <g id="Layer_1" data-name="Layer 1" transform="translate(-0.237 -0.372)">
      <text id="MACH_LOG" data-name="MACH LOG" transform="translate(75.728 49.256)" fill="#fff" font-size="35" font-family="EthnocentricRg-Regular, Ethnocentric" letter-spacing="-0.05em"><tspan x="0" y="0">M</tspan><tspan y="0" letter-spacing="-0.15em">A</tspan><tspan y="0">CH </tspan><tspan y="0" letter-spacing="-0.07em">L</tspan><tspan y="0">OG</tspan></text>
      <path id="Path_26" data-name="Path 26" d="M34.592,0A35.185,35.185,0,1,0,70.537,34.371,35.185,35.185,0,0,0,34.592,0ZM36,63.335a27.509,27.509,0,1,1,.014,0Z" transform="translate(0.406 0.521)" fill="#fff"/>
      <g id="Group_25" data-name="Group 25" transform="translate(0.698 5.397)" opacity="0.1">
        <path id="Path_27" data-name="Path 27" d="M61.482,30.762A28.148,28.148,0,0,0,8.55,18.293,28.148,28.148,0,0,1,56.8,47a27.937,27.937,0,0,0,4.687-16.241Z" transform="translate(3.119 -3.462)" fill="#fff"/>
        <path id="Path_28" data-name="Path 28" d="M37.556,63.363A35.185,35.185,0,0,1,5.9,11.29,35.185,35.185,0,1,0,66.211,47.474,35.185,35.185,0,0,1,37.556,63.363Z" transform="translate(-0.259 -0.273)" fill="#fff"/>
      </g>
      <g id="Group_26" data-name="Group 26" transform="translate(6.784)" opacity="0.3">
        <path id="Path_29" data-name="Path 29" d="M31.769,1.334A35.185,35.185,0,0,1,61.085,57.066,35.185,35.185,0,1,0,4.93,14.746,35.086,35.086,0,0,1,31.769,1.334Z" transform="translate(-4.442 0.372)" fill="#fff"/>
        <path id="Path_30" data-name="Path 30" d="M4.593,31.58A28.148,28.148,0,0,0,55.442,47.427,28.148,28.148,0,0,1,10.8,13.27,27.965,27.965,0,0,0,4.593,31.58Z" transform="translate(-4.583 5.93)" fill="#fff"/>
      </g>
      <g id="Group_27" data-name="Group 27" transform="translate(0 6.743)" opacity="0.4">
        <path id="Path_31" data-name="Path 31" d="M60.4,31.71A28.148,28.148,0,0,0,8.33,17.762,28.148,28.148,0,0,1,55.787,47.768,27.824,27.824,0,0,0,60.4,31.71Z" transform="translate(3.727 -4.419)" fill="#fff"/>
        <path id="Path_32" data-name="Path 32" d="M36.576,64.692A35.185,35.185,0,0,1,5.726,11.31a35.185,35.185,0,1,0,59.631,37.3A35.185,35.185,0,0,1,36.576,64.692Z" transform="translate(0.237 -1.612)" fill="#fff"/>
      </g>
      <path id="Path_33" data-name="Path 33" d="M17.732,26.015c.239,2.111.535,4.039.83,5.728s.591,3.237.859,4.56.549,2.533.788,3.617.493,2.125.746,3.138q.1-1.407.3-3.04c.127-1.041.3-2.252.507-3.617s.479-2.927.83-4.658.76-3.73,1.295-6c1.534-6.629,2.463-9.852,4.053-15.636a19.38,19.38,0,0,1,1.407-3.856c.507-.957,1.013-1.182,1.633-1.224s1.154.211,1.661,1.267a17.8,17.8,0,0,1,1.295,5.179C36,27.718,38.153,44.4,37.745,60.806a25.952,25.952,0,0,1-4.813.436c-.563-6.53-1.041-10.7-1.886-18.873-.352-3.336-.647-6.361-.873-9.007s-.408-5.193-.549-7.6c-.366,2.069-.788,4.391-1.224,7.037s-.985,5.883-1.52,9.612a100.881,100.881,0,0,0-1.492,12.765,25.686,25.686,0,0,1-.183,2.716A6.108,6.108,0,0,1,24.9,59.3c-.127.3-.3.479-.493.521a1.407,1.407,0,0,1-.69,0,2.814,2.814,0,0,1-.774-.408,4.588,4.588,0,0,1-.844-.915,15.4,15.4,0,0,1-1.027-1.675,28.148,28.148,0,0,1-1.407-2.815A86.441,86.441,0,0,1,15,41.6c-.535-1.816-.957-3.462-1.281-4.926s-.577-2.815-.76-3.941-.338-2.21-.422-3.153-.155-1.83-.2-2.688c-.38,2.069-.676,4.222-.873,6.558a51.2,51.2,0,0,0-.056,7.544c.408,6.826,1.224,9.5,4.039,14.229a23.926,23.926,0,0,1-3.42-3.153c-8.444-9.627-6.207-26.4.267-36.283a30.216,30.216,0,0,1,3.082-4.532,7.8,7.8,0,0,1,2.294-1.816c.479-.31.7-.2.7.366s-.366,1.253-.605,2.618a42.911,42.911,0,0,0-.042,13.6Z" transform="translate(2.995 2.572)" fill="#fff"/>
      <path id="Path_34" data-name="Path 34" d="M49.371,43.437a28.542,28.542,0,0,1-3.448,6.15,30.1,30.1,0,0,1-4.377,4.687,27.317,27.317,0,0,1-11.7,5.981,163.722,163.722,0,0,0,0-54.705,24.5,24.5,0,0,1,4.405,1.407c4.039,11.724,4.954,27.233,2.9,39.407a59.321,59.321,0,0,0,12.216-2.927Z" transform="translate(12.494 2.785)" fill="#fff"/>
    </g>
  </g>
</svg>
