<svg width="29" height="28" viewBox="0 0 29 28" fill="none" xmlns="http://www.w3.org/2000/svg">
<path d="M14.0614 9.23282e-05C10.4735 -0.00110123 7.02191 1.37558 4.42036 3.84605C1.81832 6.31652 0.264485 9.69168 0.0799873 13.2749C-0.104779 16.858 1.09359 20.3753 3.42753 23.1003L0.210767 26.9698C0.0508246 27.1553 0.0169257 27.4184 0.12411 27.6384C0.226284 27.859 0.447338 28.0001 0.69059 28.0001H14.0613C17.7744 28.0001 21.3355 26.5251 23.9609 23.8997C26.5863 21.274 28.0614 17.7134 28.0614 14.0003C28.0614 10.2872 26.5863 6.72627 23.9609 4.10094C21.3352 1.47556 17.7745 0.000520103 14.0613 0.000520103L14.0614 9.23282e-05ZM19.5985 19.8752L14.1321 18.2866L16.2242 13.4259H16.2244C16.3638 13.094 16.2586 12.7099 15.9695 12.4953C15.6806 12.281 15.2824 12.2917 15.0053 12.5213L10.0502 16.6348L5.68495 14.9596L19.5984 7.58957L19.5985 19.8752Z" fill="url(#paint0_linear_2_304)"/>
<defs>
<linearGradient id="paint0_linear_2_304" x1="14.0614" y1="9.15527e-05" x2="14.0614" y2="28.0001" gradientUnits="userSpaceOnUse">
<stop stop-color="#BD7AE3"/>
<stop offset="1" stop-color="#8461C9"/>
</linearGradient>
</defs>
</svg>
