<svg id="icon-attachments" xmlns="http://www.w3.org/2000/svg" width="31" height="31" viewBox="0 0 31 31">
  <rect id="Rectangle_124" data-name="Rectangle 124" width="31" height="31" fill="#fff" opacity="0"/>
  <path id="Icon_ionic-ios-attach" data-name="Icon ionic-ios-attach" d="M19.074,7.731a.665.665,0,0,0-.666.662v8.253A3.321,3.321,0,0,1,15.1,19.991h-.581a3.328,3.328,0,0,1-2.34-1.044A3.4,3.4,0,0,1,11.157,16.6V5.956A2.3,2.3,0,0,1,11.9,4.279a2.549,2.549,0,0,1,1.751-.692,2.41,2.41,0,0,1,1.7.688,2.36,2.36,0,0,1,.7,1.681V15.9a1.345,1.345,0,0,1-1.238,1.367A1.308,1.308,0,0,1,13.6,15.9V10.227a.666.666,0,0,0-1.332,0V15.9a2.564,2.564,0,0,0,4.36,1.91,2.673,2.673,0,0,0,.747-1.91V5.956a3.651,3.651,0,0,0-1.1-2.624,3.789,3.789,0,0,0-5.3,0A3.652,3.652,0,0,0,9.872,5.96V16.607a4.731,4.731,0,0,0,1.392,3.311,4.629,4.629,0,0,0,3.249,1.354h.581a4.678,4.678,0,0,0,3.241-1.363,4.768,4.768,0,0,0,1.021-1.469,4.423,4.423,0,0,0,.38-1.787V8.393A.659.659,0,0,0,19.074,7.731Z" transform="translate(0.696 4.091)" fill="#fff"/>
</svg>
