<svg width="38" height="37" viewBox="0 0 38 37" fill="none" xmlns="http://www.w3.org/2000/svg">
<g clip-path="url(#clip0_2_307)">
<g opacity="0.7">
<path opacity="0.7" d="M4.17219 10.1187C4.02394 10.1187 3.88036 10.0419 3.80089 9.9043C3.68335 9.69928 3.75347 9.4375 3.95782 9.31997L18.9102 0.691119C19.1179 0.572248 19.377 0.643704 19.4952 0.848724C19.6134 1.05308 19.5426 1.31486 19.3383 1.43306L4.38522 10.0612C4.31778 10.1 4.24432 10.1187 4.17219 10.1187Z" fill="#FAFAFA"/>
<path opacity="0.7" d="M4.17218 27.4003C4.02393 27.4003 3.88035 27.3242 3.80154 27.1866C3.68334 26.9816 3.75279 26.7198 3.95781 26.6016L33.8439 9.31987C34.0482 9.20034 34.31 9.27112 34.4276 9.47681C34.5458 9.68116 34.4763 9.94295 34.2706 10.0611L4.38521 27.3429C4.31843 27.3816 4.24431 27.4003 4.17218 27.4003Z" fill="#FAFAFA"/>
<path opacity="0.7" d="M34.0563 10.1187C33.9848 10.1187 33.9107 10.1 33.8439 10.0612L18.9102 1.43306C18.7065 1.31485 18.6357 1.05307 18.7546 0.848049C18.8715 0.643698 19.1319 0.572241 19.3383 0.691112L34.2706 9.31996C34.4756 9.43816 34.5458 9.69995 34.4276 9.90497C34.3481 10.0419 34.2045 10.1187 34.0563 10.1187Z" fill="#FAFAFA"/>
<path opacity="0.7" d="M34.0583 27.4003C33.9855 27.4003 33.912 27.3816 33.8452 27.3429L3.95781 10.0611C3.75279 9.94294 3.68334 9.68116 3.80154 9.4768C3.91908 9.27178 4.18086 9.20166 4.38521 9.31987L34.2726 26.6016C34.4777 26.7198 34.5471 26.9816 34.4289 27.1866C34.3501 27.3235 34.2065 27.4003 34.0583 27.4003Z" fill="#FAFAFA"/>
<path opacity="0.7" d="M19.1237 36.0509C19.0516 36.0509 18.9775 36.0322 18.9107 35.9935L3.95761 27.3426C3.75259 27.2244 3.68314 26.9626 3.80201 26.7576C3.91888 26.5532 4.18066 26.4831 4.38568 26.6013L19.3381 35.2522C19.5431 35.3704 19.6132 35.6329 19.495 35.8372C19.4155 35.9748 19.272 36.0509 19.1237 36.0509Z" fill="#FAFAFA"/>
<path opacity="0.7" d="M19.125 36.0509C18.9767 36.0509 18.8338 35.9748 18.7543 35.8372C18.6361 35.6329 18.7056 35.3704 18.9099 35.2522L33.8443 26.602C34.05 26.4818 34.3098 26.5533 34.4286 26.7576C34.5475 26.9626 34.4774 27.2244 34.2737 27.3426L19.3387 35.9935C19.2712 36.0322 19.1978 36.0509 19.125 36.0509Z" fill="#FAFAFA"/>
<path opacity="0.7" d="M4.17153 27.4003C3.93512 27.4003 3.74413 27.2087 3.74413 26.9723V9.69052C3.74413 9.45411 3.93512 9.26245 4.17153 9.26245C4.40793 9.26245 4.5996 9.45411 4.5996 9.69052V26.9723C4.5996 27.2087 4.40793 27.4003 4.17153 27.4003Z" fill="#FAFAFA"/>
<path opacity="0.7" d="M34.0589 27.4003C33.8225 27.4003 33.6309 27.2087 33.6309 26.9723L33.6295 9.69052C33.6295 9.45411 33.8212 9.26245 34.0576 9.26245C34.294 9.26245 34.485 9.45411 34.485 9.69052L34.4863 26.9723C34.4863 27.2087 34.2953 27.4003 34.0589 27.4003Z" fill="#FAFAFA"/>
<path opacity="0.7" d="M19.1244 36.0017C18.888 36.0017 18.6963 35.81 18.6963 35.5736V1.06226C18.6963 0.825849 18.888 0.634186 19.1244 0.634186C19.3608 0.634186 19.5525 0.825849 19.5525 1.06226V35.5736C19.5525 35.81 19.3608 36.0017 19.1244 36.0017Z" fill="#FAFAFA"/>
</g>
<path d="M23.4737 4.33134C23.3468 4.33134 23.2172 4.29862 23.0984 4.22983L19.1235 1.92921L15.1347 4.2305C14.7754 4.43752 14.3172 4.31464 14.1102 3.95536C13.9032 3.59608 14.0267 3.13662 14.386 2.92959L18.7502 0.41193C18.9819 0.277699 19.2671 0.277699 19.5002 0.412598L23.8496 2.93026C24.2089 3.13795 24.3311 3.59674 24.1241 3.95603C23.9845 4.19644 23.7328 4.33134 23.4737 4.33134Z" fill="#F9F9F9"/>
<path d="M19.1244 24.117C18.7103 24.117 18.3744 23.7811 18.3744 23.3664V18.331C18.3744 17.9163 18.7103 17.5804 19.1244 17.5804C19.5384 17.5804 19.8743 17.9163 19.8743 18.331V23.3664C19.8743 23.7811 19.5384 24.117 19.1244 24.117Z" fill="#F9F9F9"/>
<path d="M4.17153 15.4742C3.75815 15.4742 3.42224 15.1383 3.42224 14.7236V9.69023C3.42224 9.27552 3.75815 8.93961 4.17153 8.93961C4.58558 8.93961 4.92149 9.27552 4.92149 9.69023V14.7236C4.92149 15.1383 4.58558 15.4742 4.17153 15.4742Z" fill="#F9F9F9"/>
<path d="M34.0583 15.4742C33.6442 15.4742 33.3083 15.1383 33.3083 14.7236L33.3076 9.69023C33.3076 9.27618 33.6436 8.93961 34.0576 8.93961C34.471 8.93961 34.8069 9.27552 34.8069 9.69023L34.8076 14.7236C34.8076 15.1383 34.4716 15.4742 34.0583 15.4742Z" fill="#F9F9F9"/>
<path d="M34.059 27.7228C33.6449 27.7228 33.309 27.3876 33.309 26.9722L33.305 21.9389C33.3043 21.5248 33.6402 21.1882 34.0543 21.1882H34.055C34.469 21.1882 34.8049 21.5235 34.8049 21.9382L34.8082 26.9715C34.8096 27.3862 34.473 27.7228 34.0596 27.7228H34.059Z" fill="#F9F9F9"/>
<path d="M4.17153 27.7228C3.75815 27.7228 3.42224 27.3869 3.42224 26.9722V21.9389C3.42224 21.5241 3.75815 21.1882 4.17153 21.1882C4.58558 21.1882 4.92149 21.5241 4.92149 21.9389V26.9722C4.92149 27.3869 4.58558 27.7228 4.17153 27.7228Z" fill="#F9F9F9"/>
<path d="M19.1244 7.30061C18.7103 7.30061 18.3744 6.9647 18.3744 6.54998V1.06187C18.3744 0.64716 18.7103 0.311249 19.1244 0.311249C19.5384 0.311249 19.8743 0.64716 19.8743 1.06187V6.54998C19.8743 6.9647 19.5384 7.30061 19.1244 7.30061Z" fill="#F9F9F9"/>
<path d="M19.1244 36.3734C18.7103 36.3734 18.3744 36.0375 18.3744 35.6228V30.5895C18.3744 30.1747 18.7103 29.8388 19.1244 29.8388C19.5384 29.8388 19.8743 30.1747 19.8743 30.5895V35.6228C19.8743 36.0375 19.5384 36.3734 19.1244 36.3734Z" fill="#F9F9F9"/>
<path d="M19.1244 36.3734C18.9955 36.3734 18.8653 36.34 18.7491 36.2733L14.3695 33.7396C14.0109 33.5319 13.888 33.0724 14.0964 32.7138C14.3028 32.3545 14.7615 32.2323 15.1208 32.4393L19.1244 34.756L23.0738 32.4674C23.4318 32.2597 23.8912 32.3826 24.0989 32.7412C24.3066 33.0998 24.1838 33.5593 23.8251 33.7669L19.4997 36.2726C19.3848 36.34 19.2539 36.3734 19.1244 36.3734Z" fill="#F9F9F9"/>
<path d="M19.1244 19.0816C18.9955 19.0816 18.8659 19.0483 18.7491 18.9815L14.3849 16.4625C14.0263 16.2548 13.9034 15.796 14.1104 15.4367C14.3188 15.0768 14.7756 14.9559 15.1348 15.1609L19.1237 17.4642L23.0985 15.1622C23.4592 14.9545 23.916 15.0768 24.1236 15.436C24.3313 15.7947 24.2085 16.2541 23.8498 16.4618L19.4997 18.9808C19.3848 19.0483 19.2539 19.0816 19.1244 19.0816Z" fill="#F9F9F9"/>
<path d="M29.7031 12.9595C29.444 12.9595 29.1916 12.8253 29.0533 12.5842C28.8456 12.2249 28.9678 11.7661 29.3278 11.5584L33.6826 9.04008C34.0406 8.83373 34.5 8.95594 34.7064 9.31455C34.9141 9.67451 34.7912 10.1333 34.4319 10.341L30.0778 12.8587C29.9596 12.9268 29.8307 12.9595 29.7031 12.9595Z" fill="#F9F9F9"/>
<path d="M34.0563 10.4414C33.9294 10.4414 33.7998 10.4087 33.6823 10.3406L29.3208 7.82027C28.9622 7.61324 28.8393 7.15445 29.0456 6.79517C29.254 6.43588 29.7135 6.31301 30.0707 6.52003L34.4316 9.04037C34.7909 9.24739 34.9137 9.70618 34.7074 10.0661C34.5685 10.3065 34.3161 10.4414 34.0563 10.4414Z" fill="#F9F9F9"/>
<path d="M8.52869 12.9595C8.40114 12.9595 8.27225 12.9267 8.15404 12.8586L3.79655 10.341C3.4386 10.1333 3.31505 9.67448 3.52207 9.3152C3.7291 8.95591 4.18989 8.8337 4.5465 9.04006L8.904 11.5584C9.26329 11.7654 9.38616 12.2249 9.17914 12.5842C9.04024 12.8246 8.7878 12.9595 8.52869 12.9595Z" fill="#F9F9F9"/>
<path d="M4.1722 10.4415C3.91309 10.4415 3.66065 10.3066 3.52175 10.0655C3.31539 9.7062 3.43827 9.24741 3.79755 9.03972L8.15104 6.52806C8.50832 6.32104 8.96778 6.44392 9.1748 6.80387C9.38183 7.16249 9.25828 7.62194 8.89966 7.82897L4.54617 10.3413C4.42797 10.4087 4.29908 10.4415 4.1722 10.4415Z" fill="#F9F9F9"/>
<path d="M29.6946 30.2411C29.4349 30.2411 29.1824 30.1062 29.0435 29.8651C28.8372 29.5059 28.96 29.0464 29.3193 28.84L33.6848 26.3217C34.0428 26.114 34.5009 26.2376 34.7086 26.5969C34.915 26.9568 34.7921 27.4156 34.4328 27.6226L30.0679 30.141C29.9504 30.2084 29.8209 30.2411 29.6946 30.2411Z" fill="#F9F9F9"/>
<path d="M34.0583 27.7231C33.9308 27.7231 33.8012 27.6904 33.6837 27.6223L29.3262 25.104C28.9675 24.8969 28.844 24.4375 29.0517 24.0782C29.2587 23.7189 29.7195 23.5974 30.0761 23.8037L34.4336 26.322C34.7922 26.5291 34.9151 26.9885 34.7088 27.3478C34.5699 27.5882 34.3174 27.7231 34.0583 27.7231Z" fill="#F9F9F9"/>
<path d="M8.5287 30.2441C8.40115 30.2441 8.27226 30.2113 8.15339 30.1432L3.79589 27.6222C3.43794 27.4145 3.31507 26.9557 3.52276 26.5964C3.72911 26.2378 4.18857 26.1156 4.54719 26.322L8.90468 28.843C9.26397 29.0507 9.38618 29.5095 9.17849 29.8687C9.04025 30.1092 8.78781 30.2441 8.5287 30.2441Z" fill="#F9F9F9"/>
<path d="M4.17219 27.7231C3.91308 27.7231 3.66131 27.5889 3.5224 27.3478C3.31538 26.9892 3.43759 26.5297 3.79621 26.3227L8.14569 23.8037C8.50631 23.596 8.9631 23.7189 9.17079 24.0782C9.37848 24.4368 9.2556 24.8962 8.89699 25.1039L4.5475 27.6223C4.4293 27.6904 4.29974 27.7231 4.17219 27.7231Z" fill="#F9F9F9"/>
</g>
<defs>
<clipPath id="clip0_2_307">
<rect width="36.6186" height="36.6186" fill="white" transform="translate(0.823944 0.309418)"/>
</clipPath>
</defs>
</svg>
