<svg width="268" height="50" viewBox="0 0 268 50" fill="none" xmlns="http://www.w3.org/2000/svg">
<g filter="url(#filter0_b_2_326)">
<rect x="0.564087" width="267" height="50" rx="25" fill="#97A9F6" fill-opacity="0.5" style="mix-blend-mode:overlay"/>
<path d="M75.0895 31.777C73.6592 31.777 72.4528 31.5096 71.4702 30.9748C70.4876 30.4276 69.7414 29.6502 69.2314 28.6428C68.7339 27.6353 68.4852 26.4351 68.4852 25.0421C68.4852 23.6615 68.7401 22.4675 69.2501 21.46C69.76 20.4402 70.5 19.6566 71.4702 19.1093C72.4403 18.5621 73.6032 18.2885 74.9589 18.2885C75.7052 18.2885 76.4328 18.388 77.1417 18.587C77.8631 18.7735 78.5285 19.0845 79.138 19.5198C79.3494 19.669 79.4676 19.8556 79.4924 20.0795C79.5298 20.2909 79.4924 20.4961 79.3805 20.6951C79.281 20.8817 79.1317 21.0123 78.9327 21.0869C78.7337 21.1491 78.5099 21.1056 78.2611 20.9563C77.776 20.6205 77.2661 20.378 76.7313 20.2287C76.1965 20.067 75.6057 19.9862 74.9589 19.9862C73.5037 19.9862 72.3968 20.4277 71.6381 21.3108C70.8794 22.1814 70.5 23.4252 70.5 25.0421C70.5 26.6963 70.8856 27.9525 71.6567 28.8107C72.4403 29.6689 73.6094 30.098 75.1642 30.098C76.1094 30.098 77.0484 29.9425 77.9813 29.6316V26.1055H75.5746C75.0398 26.1055 74.7724 25.8567 74.7724 25.3592C74.7724 24.8866 75.0398 24.6503 75.5746 24.6503H78.8022C79.337 24.6503 79.6044 24.9177 79.6044 25.4525V30.1539C79.6044 30.6266 79.4303 30.9313 79.082 31.0681C78.5472 31.2795 77.9191 31.4537 77.1977 31.5905C76.4763 31.7149 75.7736 31.777 75.0895 31.777ZM86.1984 31.777C84.7059 31.777 83.5305 31.3604 82.6723 30.5271C81.8141 29.6813 81.385 28.5308 81.385 27.0756C81.385 26.1428 81.5716 25.3219 81.9447 24.613C82.3303 23.8916 82.8589 23.3319 83.5305 22.9339C84.2022 22.5359 84.9733 22.3369 85.8439 22.3369C87.1001 22.3369 88.0889 22.7411 88.8103 23.5496C89.5317 24.3456 89.8924 25.4463 89.8924 26.8517C89.8924 27.2746 89.6436 27.4861 89.1461 27.4861H83.2134C83.3502 29.3766 84.3514 30.3218 86.2171 30.3218C86.5902 30.3218 86.982 30.2783 87.3924 30.1912C87.8028 30.0917 88.2009 29.9176 88.5864 29.6689C88.8476 29.5196 89.0715 29.4699 89.258 29.5196C89.4571 29.5569 89.6001 29.6626 89.6871 29.8368C89.7742 29.9985 89.7866 30.185 89.7245 30.3965C89.6747 30.5955 89.5317 30.7696 89.2954 30.9188C88.8725 31.2049 88.375 31.4226 87.8028 31.5718C87.2432 31.7086 86.7083 31.777 86.1984 31.777ZM85.9186 23.6615C85.135 23.6615 84.5131 23.904 84.0529 24.3891C83.5927 24.8742 83.3129 25.5209 83.2134 26.3294H88.3066C88.2693 25.4836 88.0454 24.8306 87.6349 24.3704C87.2245 23.8978 86.6524 23.6615 85.9186 23.6615ZM95.3612 31.777C94.2169 31.777 93.3649 31.4848 92.8052 30.9002C92.2456 30.3156 91.9657 29.4699 91.9657 28.3629V23.96H90.8463C90.3239 23.96 90.0628 23.7175 90.0628 23.2324C90.0628 22.7473 90.3239 22.5048 90.8463 22.5048H91.9657V20.5832C91.9657 19.9489 92.2829 19.6317 92.9172 19.6317C93.5391 19.6317 93.85 19.9489 93.85 20.5832V22.5048H96.0328C96.5552 22.5048 96.8164 22.7473 96.8164 23.2324C96.8164 23.7175 96.5552 23.96 96.0328 23.96H93.85V28.2137C93.85 28.8729 93.9868 29.3704 94.2604 29.7062C94.5465 30.042 95.0067 30.2099 95.641 30.2099C95.8649 30.2099 96.0577 30.1912 96.2194 30.1539C96.3811 30.1042 96.5241 30.0731 96.6485 30.0606C96.7853 30.0606 96.8972 30.1104 96.9843 30.2099C97.0713 30.297 97.1149 30.4711 97.1149 30.7323C97.1149 30.9313 97.0776 31.1116 97.0029 31.2733C96.9407 31.4226 96.8226 31.5221 96.6485 31.5718C96.4992 31.634 96.294 31.6838 96.0328 31.7211C95.7841 31.7584 95.5602 31.777 95.3612 31.777ZM105.509 31.777C104.961 31.777 104.395 31.7149 103.811 31.5905C103.226 31.4661 102.698 31.2547 102.225 30.9562C102.014 30.8318 101.883 30.6763 101.833 30.4897C101.783 30.3032 101.796 30.1291 101.871 29.9674C101.945 29.8057 102.063 29.6937 102.225 29.6316C102.399 29.5569 102.592 29.5756 102.803 29.6875C103.288 29.9487 103.755 30.1353 104.203 30.2472C104.65 30.3592 105.092 30.4151 105.527 30.4151C106.186 30.4151 106.684 30.297 107.02 30.0606C107.355 29.8243 107.523 29.5072 107.523 29.1092C107.523 28.7858 107.411 28.537 107.188 28.3629C106.964 28.1764 106.628 28.0333 106.18 27.9338L104.408 27.5793C102.841 27.256 102.057 26.4475 102.057 25.154C102.057 24.2958 102.399 23.6117 103.083 23.1018C103.767 22.5919 104.663 22.3369 105.77 22.3369C106.889 22.3369 107.853 22.6105 108.661 23.1578C108.86 23.2822 108.979 23.4376 109.016 23.6242C109.053 23.7983 109.028 23.9662 108.941 24.1279C108.854 24.2772 108.724 24.3829 108.55 24.4451C108.388 24.5073 108.195 24.4824 107.971 24.3704C107.598 24.1466 107.225 23.9849 106.852 23.8854C106.479 23.7734 106.118 23.7175 105.77 23.7175C105.123 23.7175 104.632 23.8418 104.296 24.0906C103.96 24.3269 103.792 24.6503 103.792 25.0607C103.792 25.6826 104.203 26.0806 105.023 26.2547L106.796 26.6092C107.604 26.7709 108.214 27.0445 108.624 27.4301C109.047 27.8157 109.258 28.338 109.258 28.9972C109.258 29.8679 108.916 30.5519 108.232 31.0494C107.548 31.5345 106.64 31.777 105.509 31.777ZM114.697 31.777C113.552 31.777 112.7 31.4848 112.141 30.9002C111.581 30.3156 111.301 29.4699 111.301 28.3629V23.96H110.182C109.659 23.96 109.398 23.7175 109.398 23.2324C109.398 22.7473 109.659 22.5048 110.182 22.5048H111.301V20.5832C111.301 19.9489 111.618 19.6317 112.253 19.6317C112.875 19.6317 113.185 19.9489 113.185 20.5832V22.5048H115.368C115.891 22.5048 116.152 22.7473 116.152 23.2324C116.152 23.7175 115.891 23.96 115.368 23.96H113.185V28.2137C113.185 28.8729 113.322 29.3704 113.596 29.7062C113.882 30.042 114.342 30.2099 114.976 30.2099C115.2 30.2099 115.393 30.1912 115.555 30.1539C115.717 30.1042 115.86 30.0731 115.984 30.0606C116.121 30.0606 116.233 30.1104 116.32 30.2099C116.407 30.297 116.45 30.4711 116.45 30.7323C116.45 30.9313 116.413 31.1116 116.338 31.2733C116.276 31.4226 116.158 31.5221 115.984 31.5718C115.835 31.634 115.629 31.6838 115.368 31.7211C115.12 31.7584 114.896 31.777 114.697 31.777ZM120.093 31.777C119.458 31.777 118.892 31.6527 118.395 31.4039C117.897 31.1552 117.499 30.8193 117.201 30.3965C116.915 29.9736 116.772 29.4947 116.772 28.9599C116.772 28.2883 116.94 27.7597 117.276 27.3741C117.624 26.9886 118.19 26.7087 118.973 26.5346C119.769 26.3605 120.839 26.2734 122.182 26.2734H122.817V25.7883C122.817 25.0794 122.667 24.5694 122.369 24.2585C122.07 23.9476 121.579 23.7921 120.895 23.7921C120.497 23.7921 120.08 23.8418 119.645 23.9413C119.222 24.0408 118.781 24.2088 118.32 24.4451C118.059 24.5694 117.842 24.5881 117.667 24.501C117.506 24.414 117.394 24.2772 117.332 24.0906C117.269 23.904 117.276 23.7113 117.35 23.5122C117.425 23.3132 117.58 23.164 117.817 23.0645C118.364 22.8157 118.905 22.6354 119.44 22.5235C119.975 22.3991 120.478 22.3369 120.951 22.3369C122.195 22.3369 123.115 22.6354 123.712 23.2324C124.309 23.817 124.608 24.7374 124.608 25.9936V30.7882C124.608 31.4226 124.315 31.7397 123.731 31.7397C123.134 31.7397 122.835 31.4226 122.835 30.7882V30.098C122.611 30.6203 122.263 31.0308 121.79 31.3293C121.318 31.6278 120.752 31.777 120.093 31.777ZM120.466 30.4338C121.137 30.4338 121.697 30.1975 122.145 29.7248C122.593 29.2522 122.817 28.6552 122.817 27.9338V27.4301H122.201C121.293 27.4301 120.578 27.4736 120.055 27.5607C119.545 27.6478 119.179 27.797 118.955 28.0084C118.743 28.2074 118.638 28.4873 118.638 28.848C118.638 29.3206 118.799 29.7062 119.123 30.0047C119.446 30.2907 119.894 30.4338 120.466 30.4338ZM127.707 31.7397C127.072 31.7397 126.755 31.4226 126.755 30.7882V23.3257C126.755 22.6914 127.06 22.3742 127.669 22.3742C128.279 22.3742 128.583 22.6914 128.583 23.3257V24.1279C128.832 23.5682 129.205 23.1391 129.703 22.8406C130.213 22.5421 130.828 22.368 131.55 22.3182C132.01 22.2809 132.259 22.5297 132.296 23.0645C132.346 23.6117 132.078 23.9103 131.494 23.96L131.139 23.9973C129.485 24.159 128.658 25.011 128.658 26.5532V30.7882C128.658 31.4226 128.341 31.7397 127.707 31.7397ZM137.658 31.777C136.513 31.777 135.661 31.4848 135.102 30.9002C134.542 30.3156 134.262 29.4699 134.262 28.3629V23.96H133.143C132.62 23.96 132.359 23.7175 132.359 23.2324C132.359 22.7473 132.62 22.5048 133.143 22.5048H134.262V20.5832C134.262 19.9489 134.579 19.6317 135.214 19.6317C135.836 19.6317 136.147 19.9489 136.147 20.5832V22.5048H138.329C138.852 22.5048 139.113 22.7473 139.113 23.2324C139.113 23.7175 138.852 23.96 138.329 23.96H136.147V28.2137C136.147 28.8729 136.283 29.3704 136.557 29.7062C136.843 30.042 137.303 30.2099 137.938 30.2099C138.161 30.2099 138.354 30.1912 138.516 30.1539C138.678 30.1042 138.821 30.0731 138.945 30.0606C139.082 30.0606 139.194 30.1104 139.281 30.2099C139.368 30.297 139.411 30.4711 139.411 30.7323C139.411 30.9313 139.374 31.1116 139.299 31.2733C139.237 31.4226 139.119 31.5221 138.945 31.5718C138.796 31.634 138.591 31.6838 138.329 31.7211C138.081 31.7584 137.857 31.777 137.658 31.777ZM144.325 31.777C142.832 31.777 141.657 31.3604 140.799 30.5271C139.94 29.6813 139.511 28.5308 139.511 27.0756C139.511 26.1428 139.698 25.3219 140.071 24.613C140.457 23.8916 140.985 23.3319 141.657 22.9339C142.328 22.5359 143.1 22.3369 143.97 22.3369C145.226 22.3369 146.215 22.7411 146.937 23.5496C147.658 24.3456 148.019 25.4463 148.019 26.8517C148.019 27.2746 147.77 27.4861 147.272 27.4861H141.34C141.476 29.3766 142.478 30.3218 144.343 30.3218C144.716 30.3218 145.108 30.2783 145.519 30.1912C145.929 30.0917 146.327 29.9176 146.713 29.6689C146.974 29.5196 147.198 29.4699 147.384 29.5196C147.583 29.5569 147.726 29.6626 147.813 29.8368C147.9 29.9985 147.913 30.185 147.851 30.3965C147.801 30.5955 147.658 30.7696 147.422 30.9188C146.999 31.2049 146.501 31.4226 145.929 31.5718C145.369 31.7086 144.835 31.777 144.325 31.777ZM144.045 23.6615C143.261 23.6615 142.639 23.904 142.179 24.3891C141.719 24.8742 141.439 25.5209 141.34 26.3294H146.433C146.395 25.4836 146.172 24.8306 145.761 24.3704C145.351 23.8978 144.779 23.6615 144.045 23.6615ZM153.095 31.777C152.299 31.777 151.596 31.5905 150.987 31.2173C150.39 30.8318 149.924 30.2845 149.588 29.5756C149.252 28.8666 149.084 28.0271 149.084 27.057C149.084 26.0868 149.252 25.2535 149.588 24.557C149.924 23.8481 150.39 23.3008 150.987 22.9152C151.584 22.5297 152.287 22.3369 153.095 22.3369C153.779 22.3369 154.389 22.4861 154.924 22.7846C155.458 23.0832 155.856 23.4874 156.118 23.9973V19.2772C156.118 18.6429 156.428 18.3258 157.05 18.3258C157.685 18.3258 158.002 18.6429 158.002 19.2772V30.7882C158.002 31.4226 157.691 31.7397 157.069 31.7397C156.447 31.7397 156.136 31.4226 156.136 30.7882V30.0793C155.863 30.6017 155.458 31.0183 154.924 31.3293C154.389 31.6278 153.779 31.777 153.095 31.777ZM153.58 30.3218C154.351 30.3218 154.973 30.042 155.446 29.4823C155.919 28.9226 156.155 28.1142 156.155 27.057C156.155 25.9998 155.919 25.1975 155.446 24.6503C154.973 24.0906 154.351 23.8108 153.58 23.8108C152.797 23.8108 152.169 24.0906 151.696 24.6503C151.223 25.1975 150.987 25.9998 150.987 27.057C150.987 28.1142 151.223 28.9226 151.696 29.4823C152.169 30.042 152.797 30.3218 153.58 30.3218ZM165.604 31.7397C164.982 31.7397 164.671 31.4226 164.671 30.7882V23.3257C164.671 22.6914 164.976 22.3742 165.586 22.3742C166.195 22.3742 166.5 22.6914 166.5 23.3257V24.016C166.811 23.4687 167.233 23.0521 167.768 22.766C168.316 22.4799 168.925 22.3369 169.597 22.3369C171.748 22.3369 172.824 23.5558 172.824 25.9936V30.7882C172.824 31.4226 172.513 31.7397 171.891 31.7397C171.257 31.7397 170.94 31.4226 170.94 30.7882V26.1055C170.94 25.3219 170.784 24.7498 170.473 24.3891C170.175 24.0284 169.702 23.8481 169.056 23.8481C168.297 23.8481 167.687 24.0906 167.227 24.5757C166.78 25.0483 166.556 25.6764 166.556 26.46V30.7882C166.556 31.4226 166.238 31.7397 165.604 31.7397ZM178.928 31.777C178.008 31.777 177.212 31.5843 176.54 31.1987C175.868 30.8131 175.346 30.2721 174.973 29.5756C174.612 28.8666 174.432 28.0271 174.432 27.057C174.432 26.0868 174.612 25.2535 174.973 24.557C175.346 23.8481 175.868 23.3008 176.54 22.9152C177.212 22.5297 178.008 22.3369 178.928 22.3369C179.824 22.3369 180.607 22.5297 181.279 22.9152C181.95 23.3008 182.473 23.8481 182.846 24.557C183.219 25.2535 183.406 26.0868 183.406 27.057C183.406 28.0271 183.219 28.8666 182.846 29.5756C182.473 30.2721 181.95 30.8131 181.279 31.1987C180.607 31.5843 179.824 31.777 178.928 31.777ZM178.928 30.3218C179.699 30.3218 180.321 30.042 180.794 29.4823C181.266 28.9226 181.503 28.1142 181.503 27.057C181.503 25.9998 181.266 25.1975 180.794 24.6503C180.321 24.0906 179.699 23.8108 178.928 23.8108C178.144 23.8108 177.516 24.0906 177.044 24.6503C176.571 25.1975 176.335 25.9998 176.335 27.057C176.335 28.1142 176.571 28.9226 177.044 29.4823C177.516 30.042 178.144 30.3218 178.928 30.3218ZM188.231 31.7397C187.684 31.7397 187.304 31.4661 187.093 30.9188L184.35 23.6615C184.201 23.2884 184.201 22.9837 184.35 22.7473C184.512 22.4986 184.779 22.3742 185.153 22.3742C185.376 22.3742 185.557 22.4302 185.694 22.5421C185.83 22.6416 185.955 22.8406 186.067 23.1391L188.287 29.4077L190.6 23.0645C190.774 22.6043 191.085 22.3742 191.533 22.3742C191.993 22.3742 192.304 22.6043 192.466 23.0645L194.742 29.445L197.018 23.1018C197.118 22.8157 197.242 22.623 197.391 22.5235C197.553 22.424 197.733 22.3742 197.932 22.3742C198.305 22.3742 198.542 22.5048 198.641 22.766C198.753 23.0272 198.747 23.3257 198.623 23.6615L195.88 30.9188C195.656 31.4661 195.283 31.7397 194.761 31.7397C194.201 31.7397 193.822 31.4661 193.623 30.9188L191.477 25.098L189.35 30.9188C189.151 31.4661 188.778 31.7397 188.231 31.7397Z" fill="white"/>
<rect x="1.24503" y="0.680939" width="265.638" height="48.6381" rx="24.3191" stroke="white" stroke-opacity="0.5" stroke-width="1.36188" style="mix-blend-mode:overlay"/>
</g>
<defs>
<filter id="filter0_b_2_326" x="-81.1486" y="-81.7127" width="430.425" height="213.425" filterUnits="userSpaceOnUse" color-interpolation-filters="sRGB">
<feFlood flood-opacity="0" result="BackgroundImageFix"/>
<feGaussianBlur in="BackgroundImage" stdDeviation="40.8563"/>
<feComposite in2="SourceAlpha" operator="in" result="effect1_backgroundBlur_2_326"/>
<feBlend mode="normal" in="SourceGraphic" in2="effect1_backgroundBlur_2_326" result="shape"/>
</filter>
</defs>
</svg>
