<svg width="56" height="46" viewBox="0 0 56 46" fill="none" xmlns="http://www.w3.org/2000/svg">
<ellipse cx="28" cy="22.5" rx="15" ry="15.5" fill="#F2F7FA"/>
<path d="M44.4505 5.07692H49.6174C53.1126 5.07692 56 7.92308 56 11.5385V39.5385C56 43.0769 53.1126 46 49.6174 46H6.38263C2.88738 46 0 43.0769 0 39.5385V11.5385C0 7.92308 2.88738 5.07692 6.38263 5.07692H11.6255C12.9172 3 15.2727 0 17.4003 0H38.5997C40.7273 0 43.1588 3 44.4505 5.07692ZM27.81 37.8462C35.6364 37.8462 42.019 31.3846 42.019 23.4615C42.019 15.4615 35.6364 9 27.81 9C19.9077 9 13.4491 15.4615 13.4491 23.4615C13.4491 31.3846 19.9077 37.8462 27.81 37.8462ZM28.038 14.7692C32.749 14.7692 36.5482 18.6923 36.5482 23.4615C36.5482 28.1538 32.749 32.0769 28.038 32.0769C23.327 32.0769 19.4518 28.1538 19.4518 23.4615C19.4518 18.6923 23.327 14.7692 28.038 14.7692Z" fill="#6D7AFD"/>
</svg>
