<svg width="428" height="249" viewBox="0 0 428 249" fill="none" xmlns="http://www.w3.org/2000/svg">
<g filter="url(#filter0_b_2_321)">
<rect x="27" y="16.8821" width="373.128" height="231.821" rx="32.9231" fill="white" fill-opacity="0.01"/>
<g filter="url(#filter1_d_2_321)">
<path d="M85.9277 72.8052C84.8332 72.8052 84.286 72.2579 84.286 71.1634V57.4257C84.286 56.3312 84.8332 55.7839 85.9277 55.7839H94.547C95.384 55.7839 95.8025 56.1863 95.8025 56.9911C95.8025 57.8281 95.384 58.2466 94.547 58.2466H87.2556V62.9304H94.0158C94.8528 62.9304 95.2713 63.3409 95.2713 64.1618C95.2713 64.9827 94.8528 65.3931 94.0158 65.3931H87.2556V70.3425H94.547C95.384 70.3425 95.8025 70.753 95.8025 71.5739C95.8025 72.3947 95.384 72.8052 94.547 72.8052H85.9277ZM99.6072 72.9259C99.2531 72.9259 98.9554 72.8293 98.7139 72.6362C98.4886 72.4269 98.3679 72.1613 98.3518 71.8394C98.3518 71.5175 98.4886 71.1795 98.7622 70.8254L102.094 66.721L99.0036 62.9063C98.7139 62.5522 98.5771 62.2142 98.5932 61.8923C98.6093 61.5704 98.73 61.3128 98.9554 61.1197C99.1968 60.9104 99.4946 60.8058 99.8487 60.8058C100.219 60.8058 100.525 60.8702 100.766 60.999C101.024 61.1277 101.257 61.3289 101.466 61.6026L103.832 64.6446L106.223 61.6026C106.448 61.3289 106.681 61.1277 106.923 60.999C107.164 60.8702 107.462 60.8058 107.816 60.8058C108.186 60.8058 108.484 60.9104 108.709 61.1197C108.935 61.3289 109.047 61.5945 109.047 61.9164C109.063 62.2383 108.927 62.5763 108.637 62.9304L105.547 66.721L108.903 70.8254C109.192 71.1634 109.329 71.4934 109.313 71.8153C109.297 72.1372 109.168 72.4028 108.927 72.612C108.701 72.8213 108.404 72.9259 108.033 72.9259C107.39 72.9259 106.858 72.6603 106.44 72.1292L103.808 68.8215L101.201 72.1292C100.991 72.3867 100.766 72.5879 100.525 72.7327C100.283 72.8615 99.9774 72.9259 99.6072 72.9259ZM113.847 77.3442C112.849 77.3442 112.35 76.8372 112.35 75.8231V62.3269C112.35 61.3128 112.841 60.8058 113.823 60.8058C114.821 60.8058 115.32 61.3128 115.32 62.3269V62.8339C115.658 62.2061 116.165 61.7072 116.841 61.337C117.517 60.9507 118.29 60.7575 119.159 60.7575C120.189 60.7575 121.09 61.007 121.863 61.506C122.652 62.0049 123.263 62.7132 123.698 63.6306C124.132 64.532 124.35 65.6184 124.35 66.89C124.35 68.1455 124.132 69.24 123.698 70.1735C123.263 71.091 122.66 71.7992 121.887 72.2982C121.115 72.7971 120.205 73.0466 119.159 73.0466C118.322 73.0466 117.565 72.8696 116.889 72.5155C116.229 72.1453 115.722 71.6543 115.368 71.0427V75.8231C115.368 76.8372 114.861 77.3442 113.847 77.3442ZM118.314 70.753C119.215 70.753 119.94 70.4311 120.487 69.7872C121.034 69.1273 121.308 68.1616 121.308 66.89C121.308 65.6023 121.034 64.6446 120.487 64.0169C119.94 63.3731 119.215 63.0512 118.314 63.0512C117.413 63.0512 116.688 63.3731 116.141 64.0169C115.594 64.6446 115.32 65.6023 115.32 66.89C115.32 68.1616 115.594 69.1273 116.141 69.7872C116.688 70.4311 117.413 70.753 118.314 70.753ZM131.243 73.0466C128.555 73.0466 127.211 71.5417 127.211 68.5318V57.1118C127.211 56.0978 127.71 55.5908 128.708 55.5908C129.722 55.5908 130.229 56.0978 130.229 57.1118V68.3869C130.229 69.8355 130.833 70.5598 132.04 70.5598C132.169 70.5598 132.289 70.5598 132.402 70.5598C132.515 70.5437 132.627 70.5276 132.74 70.5115C132.965 70.4793 133.118 70.5437 133.199 70.7047C133.279 70.8495 133.32 71.1554 133.32 71.6221C133.32 72.0245 133.239 72.3384 133.078 72.5637C132.917 72.7891 132.652 72.9259 132.281 72.9742C131.943 73.0225 131.597 73.0466 131.243 73.0466ZM140.571 73.0466C139.348 73.0466 138.286 72.7971 137.384 72.2982C136.483 71.7992 135.783 71.091 135.284 70.1735C134.785 69.24 134.535 68.1455 134.535 66.89C134.535 65.6345 134.785 64.5481 135.284 63.6306C135.783 62.7132 136.483 62.0049 137.384 61.506C138.286 61.007 139.348 60.7575 140.571 60.7575C141.795 60.7575 142.857 61.007 143.758 61.506C144.66 62.0049 145.36 62.7132 145.859 63.6306C146.358 64.5481 146.607 65.6345 146.607 66.89C146.607 68.1455 146.358 69.24 145.859 70.1735C145.36 71.091 144.66 71.7992 143.758 72.2982C142.857 72.7971 141.795 73.0466 140.571 73.0466ZM140.571 70.753C141.473 70.753 142.197 70.4311 142.744 69.7872C143.292 69.1273 143.565 68.1616 143.565 66.89C143.565 65.6023 143.292 64.6446 142.744 64.0169C142.197 63.3731 141.473 63.0512 140.571 63.0512C139.67 63.0512 138.946 63.3731 138.398 64.0169C137.851 64.6446 137.578 65.6023 137.578 66.89C137.578 68.1616 137.851 69.1273 138.398 69.7872C138.946 70.4311 139.67 70.753 140.571 70.753ZM151.028 72.9983C149.997 72.9983 149.482 72.4833 149.482 71.4531V62.3269C149.482 61.3128 149.973 60.8058 150.955 60.8058C151.937 60.8058 152.428 61.3128 152.428 62.3269V63.0753C153.007 61.6911 154.247 60.9185 156.146 60.7575C156.838 60.677 157.224 61.0714 157.305 61.9406C157.385 62.7936 156.967 63.2685 156.049 63.365L155.518 63.4133C153.538 63.6065 152.549 64.6205 152.549 66.4554V71.4531C152.549 72.4833 152.042 72.9983 151.028 72.9983ZM164.951 73.0466C163.615 73.0466 162.464 72.7971 161.499 72.2982C160.533 71.7992 159.784 71.091 159.253 70.1735C158.738 69.2561 158.481 68.1696 158.481 66.9141C158.481 65.6909 158.73 64.6205 159.229 63.703C159.744 62.7856 160.444 62.0693 161.33 61.5543C162.231 61.0231 163.253 60.7575 164.396 60.7575C166.07 60.7575 167.39 61.2887 168.355 62.351C169.337 63.4133 169.828 64.8619 169.828 66.6968C169.828 67.2924 169.442 67.5902 168.669 67.5902H161.378C161.603 69.6987 162.81 70.753 164.999 70.753C165.418 70.753 165.885 70.7047 166.4 70.6081C166.931 70.4954 167.43 70.3103 167.897 70.0528C168.315 69.8114 168.669 69.7389 168.959 69.8355C169.249 69.916 169.45 70.085 169.562 70.3425C169.691 70.6001 169.707 70.8898 169.611 71.2117C169.53 71.5175 169.305 71.7831 168.935 72.0084C168.371 72.3625 167.72 72.6281 166.979 72.8052C166.255 72.9661 165.579 73.0466 164.951 73.0466ZM164.516 62.8097C163.631 62.8097 162.915 63.0834 162.368 63.6306C161.82 64.1779 161.49 64.9183 161.378 65.8518H167.317C167.253 64.87 166.979 64.1215 166.496 63.6065C166.029 63.0753 165.37 62.8097 164.516 62.8097ZM183.428 73.0466C182.575 73.0466 181.81 72.8857 181.134 72.5637C180.474 72.2257 179.951 71.775 179.565 71.2117C179.195 70.6483 179.01 70.0126 179.01 69.3044C179.01 68.4352 179.235 67.7511 179.686 67.2522C180.136 66.7371 180.869 66.3669 181.883 66.1415C182.897 65.9162 184.257 65.8035 185.963 65.8035H186.808V65.2965C186.808 64.4917 186.631 63.9123 186.277 63.5582C185.923 63.2041 185.327 63.027 184.49 63.027C184.024 63.027 183.517 63.0834 182.969 63.196C182.438 63.3087 181.875 63.5018 181.279 63.7755C180.893 63.9525 180.571 63.9767 180.314 63.8479C180.056 63.703 179.879 63.4857 179.782 63.196C179.702 62.8902 179.718 62.5844 179.831 62.2786C179.959 61.9728 180.209 61.7474 180.579 61.6026C181.319 61.2967 182.028 61.0794 182.704 60.9507C183.396 60.8219 184.024 60.7575 184.587 60.7575C186.309 60.7575 187.589 61.1599 188.426 61.9647C189.263 62.7534 189.681 63.9847 189.681 65.6587V71.4531C189.681 72.4833 189.214 72.9983 188.281 72.9983C187.331 72.9983 186.856 72.4833 186.856 71.4531V70.922C186.583 71.5819 186.148 72.105 185.553 72.4913C184.957 72.8615 184.249 73.0466 183.428 73.0466ZM184.056 70.9703C184.844 70.9703 185.496 70.6966 186.011 70.1494C186.543 69.6021 186.808 68.91 186.808 68.073V67.5419H185.987C184.474 67.5419 183.42 67.6626 182.824 67.904C182.245 68.1294 181.955 68.5479 181.955 69.1595C181.955 69.6907 182.14 70.1252 182.511 70.4632C182.881 70.8013 183.396 70.9703 184.056 70.9703ZM194.625 72.9983C193.628 72.9983 193.129 72.4833 193.129 71.4531V62.3269C193.129 61.3128 193.619 60.8058 194.601 60.8058C195.583 60.8058 196.074 61.3128 196.074 62.3269V62.8339C196.476 62.1579 197.016 61.6428 197.692 61.2887C198.384 60.9346 199.156 60.7575 200.009 60.7575C202.794 60.7575 204.186 62.3751 204.186 65.6104V71.4531C204.186 72.4833 203.687 72.9983 202.689 72.9983C201.675 72.9983 201.168 72.4833 201.168 71.4531V65.7552C201.168 64.8378 200.991 64.1698 200.637 63.7513C200.299 63.3328 199.768 63.1236 199.044 63.1236C198.158 63.1236 197.45 63.4053 196.919 63.9686C196.404 64.5159 196.146 65.2482 196.146 66.1657V71.4531C196.146 72.4833 195.639 72.9983 194.625 72.9983ZM212.175 73.0466C211.145 73.0466 210.235 72.7971 209.446 72.2982C208.674 71.7992 208.07 71.091 207.636 70.1735C207.201 69.24 206.984 68.1455 206.984 66.89C206.984 65.6184 207.201 64.532 207.636 63.6306C208.07 62.7132 208.674 62.0049 209.446 61.506C210.235 61.007 211.145 60.7575 212.175 60.7575C213.012 60.7575 213.768 60.9426 214.444 61.3128C215.12 61.683 215.627 62.1739 215.965 62.7856V57.1118C215.965 56.0978 216.464 55.5908 217.462 55.5908C218.476 55.5908 218.983 56.0978 218.983 57.1118V71.4531C218.983 72.4833 218.484 72.9983 217.486 72.9983C216.488 72.9983 215.989 72.4833 215.989 71.4531V70.9461C215.651 71.5899 215.144 72.105 214.468 72.4913C213.792 72.8615 213.028 73.0466 212.175 73.0466ZM213.02 70.753C213.921 70.753 214.645 70.4311 215.193 69.7872C215.74 69.1273 216.014 68.1616 216.014 66.89C216.014 65.6023 215.74 64.6446 215.193 64.0169C214.645 63.3731 213.921 63.0512 213.02 63.0512C212.118 63.0512 211.394 63.3731 210.847 64.0169C210.3 64.6446 210.026 65.6023 210.026 66.89C210.026 68.1616 210.3 69.1273 210.847 69.7872C211.394 70.4311 212.118 70.753 213.02 70.753ZM231.174 72.9983C230.24 72.9983 229.773 72.5155 229.773 71.5497V57.0394C229.773 56.0737 230.256 55.5908 231.222 55.5908C231.624 55.5908 231.938 55.6713 232.163 55.8322C232.405 55.9771 232.622 56.2346 232.815 56.6048L238.393 66.9141L243.97 56.6048C244.163 56.2346 244.372 55.9771 244.597 55.8322C244.823 55.6713 245.137 55.5908 245.539 55.5908C246.473 55.5908 246.939 56.0737 246.939 57.0394V71.5497C246.939 72.5155 246.473 72.9983 245.539 72.9983C244.605 72.9983 244.139 72.5155 244.139 71.5497V61.337L239.6 69.6182C239.439 69.8918 239.27 70.093 239.093 70.2218C238.916 70.3506 238.674 70.415 238.368 70.415C238.063 70.415 237.813 70.3506 237.62 70.2218C237.427 70.077 237.258 69.8758 237.113 69.6182L232.574 61.3853V71.5497C232.574 72.5155 232.107 72.9983 231.174 72.9983ZM252.277 58.5846C251.713 58.5846 251.271 58.4478 250.949 58.1742C250.643 57.8844 250.49 57.4901 250.49 56.9911C250.49 56.4761 250.643 56.0817 250.949 55.8081C251.271 55.5345 251.713 55.3976 252.277 55.3976C253.468 55.3976 254.063 55.9288 254.063 56.9911C254.063 58.0534 253.468 58.5846 252.277 58.5846ZM252.277 72.9742C251.794 72.9742 251.424 72.8293 251.166 72.5396C250.909 72.2499 250.78 71.8475 250.78 71.3324V62.4717C250.78 61.3772 251.279 60.83 252.277 60.83C253.291 60.83 253.798 61.3772 253.798 62.4717V71.3324C253.798 71.8475 253.669 72.2499 253.412 72.5396C253.154 72.8293 252.776 72.9742 252.277 72.9742ZM258.815 72.9983C257.817 72.9983 257.318 72.4833 257.318 71.4531V62.3269C257.318 61.3128 257.809 60.8058 258.791 60.8058C259.772 60.8058 260.263 61.3128 260.263 62.3269V62.8339C260.666 62.1579 261.205 61.6428 261.881 61.2887C262.573 60.9346 263.346 60.7575 264.199 60.7575C266.983 60.7575 268.376 62.3751 268.376 65.6104V71.4531C268.376 72.4833 267.877 72.9983 266.879 72.9983C265.865 72.9983 265.358 72.4833 265.358 71.4531V65.7552C265.358 64.8378 265.181 64.1698 264.826 63.7513C264.488 63.3328 263.957 63.1236 263.233 63.1236C262.348 63.1236 261.64 63.4053 261.108 63.9686C260.593 64.5159 260.336 65.2482 260.336 66.1657V71.4531C260.336 72.4833 259.829 72.9983 258.815 72.9983ZM277.233 73.0466C274.111 73.0466 272.549 71.5014 272.549 68.411V63.2685H271.294C270.489 63.2685 270.087 62.8902 270.087 62.1337C270.087 61.3772 270.489 60.999 271.294 60.999H272.549V58.8019C272.549 57.7879 273.056 57.2808 274.07 57.2808C275.068 57.2808 275.567 57.7879 275.567 58.8019V60.999H278.126C278.931 60.999 279.334 61.3772 279.334 62.1337C279.334 62.8902 278.931 63.2685 278.126 63.2685H275.567V68.242C275.567 69.0146 275.736 69.5941 276.074 69.9804C276.412 70.3667 276.96 70.5598 277.716 70.5598C277.99 70.5598 278.231 70.5357 278.44 70.4874C278.65 70.4391 278.835 70.4069 278.996 70.3908C279.189 70.3747 279.35 70.4391 279.478 70.584C279.607 70.7127 279.672 70.9864 279.672 71.4048C279.672 71.7268 279.615 72.0165 279.503 72.274C279.406 72.5155 279.221 72.6845 278.947 72.781C278.738 72.8454 278.464 72.9018 278.126 72.95C277.788 73.0144 277.491 73.0466 277.233 73.0466ZM290.152 72.9983C289.186 72.9983 288.704 72.4994 288.704 71.5014V57.136C288.704 56.637 288.824 56.2588 289.066 56.0012C289.323 55.7276 289.653 55.5908 290.056 55.5908C290.426 55.5908 290.699 55.6632 290.876 55.8081C291.07 55.9369 291.295 56.1622 291.553 56.4841L300.172 67.6626V57.0636C300.172 56.0817 300.655 55.5908 301.62 55.5908C302.57 55.5908 303.045 56.0817 303.045 57.0636V71.5497C303.045 72.0004 302.932 72.3545 302.707 72.612C302.482 72.8696 302.176 72.9983 301.789 72.9983C301.419 72.9983 301.121 72.9259 300.896 72.781C300.687 72.6362 300.453 72.4028 300.196 72.0809L291.577 60.8782V71.5014C291.577 72.4994 291.102 72.9983 290.152 72.9983ZM308.742 72.9983C307.679 72.9983 307.148 72.4511 307.148 71.3566V57.4257C307.148 56.3312 307.695 55.7839 308.79 55.7839H317.216C318.053 55.7839 318.472 56.1863 318.472 56.9911C318.472 57.8281 318.053 58.2466 317.216 58.2466H310.239V63.0512H316.709C317.546 63.0512 317.965 63.4536 317.965 64.2583C317.965 65.0953 317.546 65.5138 316.709 65.5138H310.239V71.3566C310.239 72.4511 309.74 72.9983 308.742 72.9983ZM326.928 72.9983C325.898 72.9983 325.383 72.4672 325.383 71.4048V58.3673H320.675C319.789 58.3673 319.347 57.9327 319.347 57.0636C319.347 56.2105 319.789 55.7839 320.675 55.7839H333.181C334.066 55.7839 334.509 56.2105 334.509 57.0636C334.509 57.9327 334.066 58.3673 333.181 58.3673H328.473V71.4048C328.473 72.4672 327.958 72.9983 326.928 72.9983ZM338.803 73.0466C338.111 73.0466 337.379 72.9742 336.606 72.8293C335.834 72.6845 335.142 72.435 334.53 72.0809C334.192 71.8877 333.983 71.6543 333.902 71.3807C333.822 71.091 333.83 70.8254 333.926 70.584C334.039 70.3264 334.216 70.1413 334.458 70.0287C334.715 69.916 335.013 69.9401 335.351 70.1011C335.995 70.4069 336.598 70.6242 337.162 70.753C337.725 70.8656 338.28 70.922 338.828 70.922C339.6 70.922 340.172 70.7932 340.542 70.5357C340.928 70.2621 341.121 69.9079 341.121 69.4734C341.121 68.7973 340.622 68.3628 339.624 68.1696L337.21 67.7109C335.166 67.3246 334.144 66.2623 334.144 64.5239C334.144 63.7513 334.353 63.0834 334.771 62.52C335.206 61.9567 335.802 61.5221 336.558 61.2163C337.315 60.9104 338.184 60.7575 339.166 60.7575C340.582 60.7575 341.846 61.0714 342.956 61.6991C343.262 61.8601 343.439 62.0854 343.487 62.3751C343.552 62.6488 343.519 62.9144 343.391 63.1719C343.278 63.4133 343.093 63.5904 342.835 63.703C342.578 63.7996 342.28 63.7674 341.942 63.6065C341.443 63.3489 340.96 63.1638 340.493 63.0512C340.043 62.9385 339.608 62.8822 339.19 62.8822C338.401 62.8822 337.814 63.019 337.427 63.2926C337.057 63.5662 336.872 63.9284 336.872 64.3791C336.872 65.0873 337.331 65.5219 338.248 65.6828L340.662 66.1415C341.709 66.3347 342.497 66.6888 343.029 67.2039C343.576 67.7189 343.849 68.411 343.849 69.2802C343.849 70.4552 343.391 71.3807 342.473 72.0567C341.556 72.7166 340.333 73.0466 338.803 73.0466Z" fill="white"/>
</g>
<g filter="url(#filter2_d_2_321)">
<path d="M66.1421 102.49C65.7521 102.49 65.5571 102.28 65.5571 101.862V97.6247L62.233 93.0594C62.0998 92.8787 62.0713 92.698 62.1474 92.5173C62.233 92.327 62.3947 92.2319 62.6325 92.2319C62.8798 92.2319 63.0938 92.3603 63.2745 92.6171L66.1706 96.5975L69.0525 92.6171C69.2427 92.3603 69.4567 92.2319 69.6945 92.2319C69.9227 92.2319 70.0749 92.3223 70.151 92.503C70.2271 92.6742 70.1938 92.8644 70.0511 93.0737L66.727 97.6533V101.862C66.727 102.28 66.532 102.49 66.1421 102.49ZM73.1413 102.518C72.466 102.518 71.8811 102.371 71.3865 102.076C70.8919 101.781 70.5067 101.367 70.2309 100.835C69.9646 100.293 69.8314 99.6554 69.8314 98.923C69.8314 98.1906 69.9646 97.5582 70.2309 97.0255C70.5067 96.4834 70.8919 96.0649 71.3865 95.7701C71.8811 95.4752 72.466 95.3278 73.1413 95.3278C73.8071 95.3278 74.3873 95.4752 74.8818 95.7701C75.3859 96.0649 75.7711 96.4834 76.0374 97.0255C76.3133 97.5582 76.4512 98.1906 76.4512 98.923C76.4512 99.6554 76.3133 100.293 76.0374 100.835C75.7711 101.367 75.3859 101.781 74.8818 102.076C74.3873 102.371 73.8071 102.518 73.1413 102.518ZM73.1413 101.591C73.7881 101.591 74.3064 101.363 74.6964 100.906C75.0863 100.44 75.2813 99.779 75.2813 98.923C75.2813 98.0575 75.0863 97.3965 74.6964 96.9399C74.3064 96.4834 73.7881 96.2551 73.1413 96.2551C72.485 96.2551 71.9619 96.4834 71.572 96.9399C71.1915 97.3965 71.0013 98.0575 71.0013 98.923C71.0013 99.779 71.1915 100.44 71.572 100.906C71.9619 101.363 72.485 101.591 73.1413 101.591ZM80.5552 102.518C78.8907 102.518 78.0585 101.6 78.0585 99.7647V95.9413C78.0585 95.5513 78.2487 95.3563 78.6292 95.3563C79.0191 95.3563 79.2141 95.5513 79.2141 95.9413V99.7505C79.2141 100.369 79.3378 100.825 79.5851 101.12C79.8419 101.415 80.2413 101.562 80.7835 101.562C81.3731 101.562 81.8535 101.367 82.2244 100.977C82.5953 100.578 82.7808 100.05 82.7808 99.3938V95.9413C82.7808 95.5513 82.9758 95.3563 83.3657 95.3563C83.7462 95.3563 83.9364 95.5513 83.9364 95.9413V101.89C83.9364 102.29 83.7509 102.49 83.38 102.49C82.9995 102.49 82.8093 102.29 82.8093 101.89V101.22C82.5906 101.638 82.2815 101.962 81.882 102.19C81.492 102.409 81.0498 102.518 80.5552 102.518ZM92.5443 102.518C91.85 102.518 91.2508 102.371 90.7467 102.076C90.2426 101.772 89.8527 101.348 89.5768 100.806C89.3105 100.255 89.1774 99.6126 89.1774 98.8802C89.1774 97.7769 89.477 96.9114 90.0762 96.2837C90.6754 95.6464 91.4981 95.3278 92.5443 95.3278C92.8867 95.3278 93.2434 95.3849 93.6143 95.499C93.9852 95.6036 94.3229 95.7796 94.6272 96.0269C94.7889 96.141 94.8555 96.2837 94.827 96.4549C94.808 96.6261 94.7271 96.7545 94.5844 96.8401C94.4513 96.9257 94.2944 96.9066 94.1136 96.783C93.8568 96.5928 93.6 96.4596 93.3432 96.3835C93.096 96.3074 92.8534 96.2694 92.6156 96.2694C91.8928 96.2694 91.3364 96.4977 90.9464 96.9542C90.5565 97.4012 90.3615 98.048 90.3615 98.8945C90.3615 99.7219 90.5565 100.378 90.9464 100.863C91.3364 101.339 91.8928 101.577 92.6156 101.577C92.8534 101.577 93.096 101.539 93.3432 101.462C93.6 101.386 93.8568 101.253 94.1136 101.063C94.2944 100.939 94.4513 100.925 94.5844 101.02C94.7176 101.106 94.7889 101.234 94.7984 101.405C94.8175 101.577 94.7509 101.715 94.5987 101.819C94.2944 102.066 93.9615 102.247 93.6 102.361C93.2386 102.466 92.8867 102.518 92.5443 102.518ZM98.2508 102.518C97.7752 102.518 97.3472 102.428 96.9668 102.247C96.5958 102.057 96.301 101.8 96.0822 101.477C95.8635 101.153 95.7541 100.792 95.7541 100.392C95.7541 99.8884 95.8825 99.4889 96.1393 99.1941C96.4056 98.8992 96.8384 98.69 97.4376 98.5663C98.0463 98.4332 98.8737 98.3666 99.92 98.3666H100.376V97.9243C100.376 97.3346 100.253 96.9114 100.006 96.6546C99.7678 96.3883 99.3826 96.2551 98.85 96.2551C98.5171 96.2551 98.1794 96.2979 97.837 96.3835C97.5041 96.4691 97.157 96.607 96.7956 96.7973C96.6339 96.8829 96.496 96.9019 96.3818 96.8543C96.2772 96.7973 96.2011 96.7117 96.1536 96.5975C96.1155 96.4739 96.1155 96.3502 96.1536 96.2266C96.2011 96.0934 96.2962 95.9936 96.4389 95.927C96.8479 95.7178 97.2568 95.5656 97.6658 95.4705C98.0843 95.3754 98.479 95.3278 98.85 95.3278C99.744 95.3278 100.405 95.5466 100.833 95.9841C101.271 96.4216 101.489 97.1016 101.489 98.0242V101.89C101.489 102.29 101.313 102.49 100.961 102.49C100.59 102.49 100.405 102.29 100.405 101.89V101.191C100.224 101.6 99.9437 101.924 99.5633 102.162C99.1924 102.399 98.7548 102.518 98.2508 102.518ZM98.4362 101.648C99.0069 101.648 99.4729 101.453 99.8344 101.063C100.196 100.664 100.376 100.159 100.376 99.5507V99.1227H99.9342C99.1638 99.1227 98.5551 99.1608 98.1081 99.2369C97.6706 99.3034 97.3615 99.4271 97.1808 99.6078C97.0096 99.779 96.924 100.017 96.924 100.321C96.924 100.711 97.0571 101.03 97.3234 101.277C97.5992 101.524 97.9702 101.648 98.4362 101.648ZM104.118 102.49C103.738 102.49 103.548 102.29 103.548 101.89V95.9413C103.548 95.5513 103.733 95.3563 104.104 95.3563C104.484 95.3563 104.675 95.5513 104.675 95.9413V96.6403C104.903 96.2028 105.226 95.8747 105.645 95.6559C106.063 95.4372 106.534 95.3278 107.057 95.3278C108.703 95.3278 109.525 96.2409 109.525 98.067V101.89C109.525 102.29 109.335 102.49 108.955 102.49C108.565 102.49 108.37 102.29 108.37 101.89V98.1383C108.37 97.4916 108.241 97.0208 107.985 96.7259C107.737 96.4216 107.338 96.2694 106.786 96.2694C106.149 96.2694 105.64 96.4691 105.26 96.8686C104.889 97.2586 104.703 97.7817 104.703 98.4379V101.89C104.703 102.29 104.508 102.49 104.118 102.49ZM118.673 102.518C118.131 102.518 117.65 102.399 117.232 102.162C116.813 101.914 116.504 101.577 116.304 101.149V101.89C116.304 102.29 116.114 102.49 115.734 102.49C115.353 102.49 115.163 102.29 115.163 101.89V92.8169C115.163 92.4269 115.353 92.2319 115.734 92.2319C116.124 92.2319 116.319 92.4269 116.319 92.8169V96.6546C116.518 96.2456 116.828 95.9222 117.246 95.6845C117.665 95.4467 118.14 95.3278 118.673 95.3278C119.291 95.3278 119.828 95.4752 120.285 95.7701C120.751 96.0554 121.108 96.4691 121.355 97.0113C121.612 97.5439 121.74 98.1811 121.74 98.923C121.74 99.6554 121.612 100.293 121.355 100.835C121.108 101.367 120.751 101.781 120.285 102.076C119.828 102.371 119.291 102.518 118.673 102.518ZM118.43 101.591C119.077 101.591 119.595 101.363 119.985 100.906C120.375 100.44 120.57 99.779 120.57 98.923C120.57 98.0575 120.375 97.3965 119.985 96.9399C119.595 96.4834 119.077 96.2551 118.43 96.2551C117.783 96.2551 117.265 96.4834 116.875 96.9399C116.485 97.3965 116.29 98.0575 116.29 98.923C116.29 99.779 116.485 100.44 116.875 100.906C117.265 101.363 117.783 101.591 118.43 101.591ZM125.849 102.518C124.185 102.518 123.352 101.6 123.352 99.7647V95.9413C123.352 95.5513 123.543 95.3563 123.923 95.3563C124.313 95.3563 124.508 95.5513 124.508 95.9413V99.7505C124.508 100.369 124.632 100.825 124.879 101.12C125.136 101.415 125.535 101.562 126.077 101.562C126.667 101.562 127.147 101.367 127.518 100.977C127.889 100.578 128.075 100.05 128.075 99.3938V95.9413C128.075 95.5513 128.27 95.3563 128.659 95.3563C129.04 95.3563 129.23 95.5513 129.23 95.9413V101.89C129.23 102.29 129.045 102.49 128.674 102.49C128.293 102.49 128.103 102.29 128.103 101.89V101.22C127.884 101.638 127.575 101.962 127.176 102.19C126.786 102.409 126.344 102.518 125.849 102.518ZM132.847 105.058C132.629 105.058 132.481 104.972 132.405 104.801C132.329 104.639 132.334 104.454 132.419 104.244L133.29 102.276L130.665 96.1695C130.57 95.9508 130.565 95.7606 130.65 95.5989C130.745 95.4372 130.921 95.3563 131.178 95.3563C131.445 95.3563 131.64 95.5085 131.763 95.8129L133.917 101.077L136.086 95.8129C136.162 95.6417 136.243 95.5228 136.328 95.4562C136.414 95.3896 136.538 95.3563 136.699 95.3563C136.918 95.3563 137.066 95.4372 137.142 95.5989C137.218 95.7606 137.213 95.946 137.127 96.1553L133.475 104.601C133.399 104.772 133.313 104.891 133.218 104.958C133.133 105.024 133.009 105.058 132.847 105.058ZM144.325 102.518C143.849 102.518 143.421 102.428 143.041 102.247C142.67 102.057 142.375 101.8 142.156 101.477C141.937 101.153 141.828 100.792 141.828 100.392C141.828 99.8884 141.956 99.4889 142.213 99.1941C142.48 98.8992 142.912 98.69 143.512 98.5663C144.12 98.4332 144.948 98.3666 145.994 98.3666H146.45V97.9243C146.45 97.3346 146.327 96.9114 146.08 96.6546C145.842 96.3883 145.457 96.2551 144.924 96.2551C144.591 96.2551 144.253 96.2979 143.911 96.3835C143.578 96.4691 143.231 96.607 142.87 96.7973C142.708 96.8829 142.57 96.9019 142.456 96.8543C142.351 96.7973 142.275 96.7117 142.228 96.5975C142.189 96.4739 142.189 96.3502 142.228 96.2266C142.275 96.0934 142.37 95.9936 142.513 95.927C142.922 95.7178 143.331 95.5656 143.74 95.4705C144.158 95.3754 144.553 95.3278 144.924 95.3278C145.818 95.3278 146.479 95.5466 146.907 95.9841C147.345 96.4216 147.563 97.1016 147.563 98.0242V101.89C147.563 102.29 147.387 102.49 147.035 102.49C146.664 102.49 146.479 102.29 146.479 101.89V101.191C146.298 101.6 146.018 101.924 145.637 102.162C145.266 102.399 144.829 102.518 144.325 102.518ZM144.51 101.648C145.081 101.648 145.547 101.453 145.908 101.063C146.27 100.664 146.45 100.159 146.45 99.5507V99.1227H146.008C145.238 99.1227 144.629 99.1608 144.182 99.2369C143.745 99.3034 143.435 99.4271 143.255 99.6078C143.084 99.779 142.998 100.017 142.998 100.321C142.998 100.711 143.131 101.03 143.397 101.277C143.673 101.524 144.044 101.648 144.51 101.648ZM150.192 102.49C149.812 102.49 149.622 102.29 149.622 101.89V95.9413C149.622 95.5513 149.807 95.3563 150.178 95.3563C150.558 95.3563 150.749 95.5513 150.749 95.9413V96.6403C150.977 96.2028 151.3 95.8747 151.719 95.6559C152.137 95.4372 152.608 95.3278 153.131 95.3278C154.777 95.3278 155.599 96.2409 155.599 98.067V101.89C155.599 102.29 155.409 102.49 155.029 102.49C154.639 102.49 154.444 102.29 154.444 101.89V98.1383C154.444 97.4916 154.315 97.0208 154.059 96.7259C153.811 96.4216 153.412 96.2694 152.86 96.2694C152.223 96.2694 151.714 96.4691 151.334 96.8686C150.963 97.2586 150.777 97.7817 150.777 98.4379V101.89C150.777 102.29 150.582 102.49 150.192 102.49ZM160.284 102.518C159.666 102.518 159.124 102.371 158.657 102.076C158.201 101.781 157.844 101.367 157.587 100.835C157.34 100.293 157.217 99.6554 157.217 98.923C157.217 98.1811 157.34 97.5439 157.587 97.0113C157.844 96.4691 158.201 96.0554 158.657 95.7701C159.124 95.4752 159.666 95.3278 160.284 95.3278C160.826 95.3278 161.302 95.4467 161.711 95.6845C162.129 95.9222 162.438 96.2504 162.638 96.6689V92.8169C162.638 92.4269 162.833 92.2319 163.223 92.2319C163.603 92.2319 163.793 92.4269 163.793 92.8169V101.89C163.793 102.29 163.603 102.49 163.223 102.49C162.842 102.49 162.652 102.29 162.652 101.89V101.149C162.443 101.577 162.129 101.914 161.711 102.162C161.302 102.399 160.826 102.518 160.284 102.518ZM160.526 101.591C161.173 101.591 161.692 101.363 162.081 100.906C162.471 100.44 162.666 99.779 162.666 98.923C162.666 98.0575 162.471 97.3965 162.081 96.9399C161.692 96.4834 161.173 96.2551 160.526 96.2551C159.87 96.2551 159.347 96.4834 158.957 96.9399C158.577 97.3965 158.386 98.0575 158.386 98.923C158.386 99.779 158.577 100.44 158.957 100.906C159.347 101.363 159.87 101.591 160.526 101.591ZM171.809 102.518C171.381 102.518 170.948 102.466 170.511 102.361C170.083 102.247 169.683 102.066 169.312 101.819C169.141 101.715 169.055 101.581 169.055 101.42C169.065 101.248 169.131 101.115 169.255 101.02C169.379 100.925 169.536 100.925 169.726 101.02C170.097 101.248 170.453 101.41 170.796 101.505C171.148 101.591 171.495 101.634 171.837 101.634C172.379 101.634 172.788 101.534 173.064 101.334C173.34 101.134 173.478 100.863 173.478 100.521C173.478 100.255 173.388 100.045 173.207 99.8931C173.026 99.7314 172.741 99.6078 172.351 99.5222L171.053 99.2369C169.873 98.9801 169.284 98.3714 169.284 97.4107C169.284 96.783 169.531 96.2789 170.025 95.8985C170.53 95.518 171.186 95.3278 171.994 95.3278C172.403 95.3278 172.798 95.3849 173.178 95.499C173.559 95.6036 173.901 95.7748 174.206 96.0126C174.367 96.1267 174.439 96.2646 174.42 96.4263C174.401 96.588 174.324 96.7164 174.191 96.8115C174.068 96.8971 173.916 96.8829 173.735 96.7687C173.449 96.5785 173.159 96.4406 172.865 96.355C172.57 96.2599 172.28 96.2123 171.994 96.2123C171.462 96.2123 171.057 96.317 170.782 96.5262C170.506 96.7354 170.368 97.0113 170.368 97.3537C170.368 97.8863 170.72 98.2287 171.424 98.3809L172.722 98.6519C173.331 98.7851 173.792 98.9991 174.106 99.2939C174.42 99.5793 174.577 99.9692 174.577 100.464C174.577 101.101 174.324 101.605 173.82 101.976C173.316 102.337 172.646 102.518 171.809 102.518ZM179.376 102.518C178.283 102.518 177.417 102.2 176.78 101.562C176.143 100.916 175.824 100.041 175.824 98.9373C175.824 98.2239 175.967 97.5962 176.252 97.0541C176.537 96.5024 176.927 96.0792 177.422 95.7843C177.926 95.48 178.506 95.3278 179.162 95.3278C180.104 95.3278 180.841 95.6322 181.374 96.2409C181.906 96.8401 182.173 97.6675 182.173 98.7233C182.173 99.0181 182.006 99.1655 181.673 99.1655H176.951C176.989 99.955 177.217 100.559 177.636 100.977C178.054 101.386 178.635 101.591 179.376 101.591C179.69 101.591 180.009 101.553 180.332 101.477C180.656 101.391 180.97 101.244 181.274 101.034C181.493 100.892 181.673 100.863 181.816 100.949C181.968 101.034 182.044 101.168 182.044 101.348C182.054 101.52 181.959 101.672 181.759 101.805C181.445 102.033 181.069 102.209 180.632 102.333C180.204 102.456 179.785 102.518 179.376 102.518ZM179.191 96.1838C178.535 96.1838 178.016 96.3883 177.636 96.7973C177.256 97.2062 177.032 97.7436 176.965 98.4094H181.174C181.146 97.7056 180.96 97.1587 180.618 96.7687C180.285 96.3788 179.809 96.1838 179.191 96.1838ZM185.871 102.518C185.186 102.518 184.663 102.314 184.302 101.905C183.94 101.486 183.76 100.882 183.76 100.093V92.8169C183.76 92.4269 183.95 92.2319 184.33 92.2319C184.72 92.2319 184.915 92.4269 184.915 92.8169V100.007C184.915 101.025 185.319 101.534 186.128 101.534C186.213 101.534 186.29 101.529 186.356 101.52C186.423 101.51 186.489 101.505 186.556 101.505C186.66 101.496 186.732 101.52 186.77 101.577C186.817 101.634 186.841 101.748 186.841 101.919C186.841 102.242 186.679 102.428 186.356 102.475C186.28 102.494 186.199 102.504 186.114 102.504C186.028 102.513 185.947 102.518 185.871 102.518ZM190.007 102.518C189.322 102.518 188.799 102.314 188.438 101.905C188.076 101.486 187.895 100.882 187.895 100.093V92.8169C187.895 92.4269 188.086 92.2319 188.466 92.2319C188.856 92.2319 189.051 92.4269 189.051 92.8169V100.007C189.051 101.025 189.455 101.534 190.264 101.534C190.349 101.534 190.425 101.529 190.492 101.52C190.559 101.51 190.625 101.505 190.692 101.505C190.796 101.496 190.868 101.52 190.906 101.577C190.953 101.634 190.977 101.748 190.977 101.919C190.977 102.242 190.815 102.428 190.492 102.475C190.416 102.494 190.335 102.504 190.249 102.504C190.164 102.513 190.083 102.518 190.007 102.518ZM198.406 102.518C197.588 102.518 196.974 102.304 196.565 101.876C196.157 101.439 195.952 100.811 195.952 99.993V96.355H194.996C194.663 96.355 194.497 96.2028 194.497 95.8985C194.497 95.6036 194.663 95.4562 194.996 95.4562H195.952V93.8155C195.952 93.4256 196.147 93.2306 196.537 93.2306C196.917 93.2306 197.108 93.4256 197.108 93.8155V95.4562H198.905C199.238 95.4562 199.405 95.6036 199.405 95.8985C199.405 96.2028 199.238 96.355 198.905 96.355H197.108V99.8789C197.108 100.421 197.222 100.835 197.45 101.12C197.678 101.396 198.049 101.534 198.563 101.534C198.744 101.534 198.896 101.515 199.019 101.477C199.143 101.439 199.252 101.42 199.347 101.42C199.433 101.41 199.504 101.439 199.561 101.505C199.619 101.572 199.647 101.686 199.647 101.848C199.647 101.962 199.623 102.066 199.576 102.162C199.538 102.257 199.466 102.323 199.362 102.361C199.248 102.399 199.095 102.433 198.905 102.461C198.725 102.499 198.558 102.518 198.406 102.518ZM201.18 102.49C200.8 102.49 200.61 102.29 200.61 101.89V92.8169C200.61 92.4269 200.8 92.2319 201.18 92.2319C201.57 92.2319 201.765 92.4269 201.765 92.8169V96.5975C201.993 96.179 202.312 95.8652 202.721 95.6559C203.14 95.4372 203.606 95.3278 204.119 95.3278C205.765 95.3278 206.587 96.2409 206.587 98.067V101.89C206.587 102.29 206.397 102.49 206.017 102.49C205.627 102.49 205.432 102.29 205.432 101.89V98.1383C205.432 97.4916 205.303 97.0208 205.047 96.7259C204.799 96.4216 204.4 96.2694 203.848 96.2694C203.211 96.2694 202.702 96.4691 202.322 96.8686C201.951 97.2586 201.765 97.7817 201.765 98.4379V101.89C201.765 102.29 201.57 102.49 201.18 102.49ZM211.757 102.518C210.663 102.518 209.798 102.2 209.16 101.562C208.523 100.916 208.205 100.041 208.205 98.9373C208.205 98.2239 208.347 97.5962 208.633 97.0541C208.918 96.5024 209.308 96.0792 209.802 95.7843C210.307 95.48 210.887 95.3278 211.543 95.3278C212.485 95.3278 213.222 95.6322 213.754 96.2409C214.287 96.8401 214.553 97.6675 214.553 98.7233C214.553 99.0181 214.387 99.1655 214.054 99.1655H209.332C209.37 99.955 209.598 100.559 210.016 100.977C210.435 101.386 211.015 101.591 211.757 101.591C212.071 101.591 212.39 101.553 212.713 101.477C213.036 101.391 213.35 101.244 213.654 101.034C213.873 100.892 214.054 100.863 214.197 100.949C214.349 101.034 214.425 101.168 214.425 101.348C214.434 101.52 214.339 101.672 214.14 101.805C213.826 102.033 213.45 102.209 213.012 102.333C212.584 102.456 212.166 102.518 211.757 102.518ZM211.572 96.1838C210.915 96.1838 210.397 96.3883 210.016 96.7973C209.636 97.2062 209.413 97.7436 209.346 98.4094H213.555C213.526 97.7056 213.341 97.1587 212.998 96.7687C212.665 96.3788 212.19 96.1838 211.572 96.1838ZM220.446 102.49C220.075 102.49 219.89 102.295 219.89 101.905V92.8311C219.89 92.4317 220.061 92.2319 220.403 92.2319C220.546 92.2319 220.655 92.2605 220.731 92.3175C220.807 92.3651 220.893 92.4554 220.988 92.5886L226.866 100.421V92.8026C226.866 92.4222 227.051 92.2319 227.422 92.2319C227.774 92.2319 227.95 92.4222 227.95 92.8026V101.919C227.95 102.299 227.793 102.49 227.479 102.49C227.337 102.49 227.223 102.461 227.137 102.404C227.051 102.347 226.961 102.257 226.866 102.133L220.988 94.2721V101.905C220.988 102.295 220.807 102.49 220.446 102.49ZM230.992 102.49C230.574 102.49 230.365 102.276 230.365 101.848V92.9738C230.365 92.5458 230.579 92.3318 231.007 92.3318H236.185C236.518 92.3318 236.685 92.4935 236.685 92.8169C236.685 93.1498 236.518 93.3162 236.185 93.3162H231.535V96.8258H235.886C236.228 96.8258 236.399 96.9875 236.399 97.3109C236.399 97.6438 236.228 97.8102 235.886 97.8102H231.535V101.848C231.535 102.276 231.354 102.49 230.992 102.49ZM241.162 102.49C240.772 102.49 240.577 102.285 240.577 101.876V93.3447H237.367C237.006 93.3447 236.825 93.1735 236.825 92.8311C236.825 92.4982 237.006 92.3318 237.367 92.3318H244.971C245.333 92.3318 245.513 92.4982 245.513 92.8311C245.513 93.1735 245.333 93.3447 244.971 93.3447H241.761V101.876C241.761 102.285 241.562 102.49 241.162 102.49ZM247.702 102.518C247.274 102.518 246.841 102.466 246.404 102.361C245.976 102.247 245.576 102.066 245.205 101.819C245.034 101.715 244.948 101.581 244.948 101.42C244.958 101.248 245.024 101.115 245.148 101.02C245.272 100.925 245.429 100.925 245.619 101.02C245.99 101.248 246.346 101.41 246.689 101.505C247.041 101.591 247.388 101.634 247.73 101.634C248.272 101.634 248.681 101.534 248.957 101.334C249.233 101.134 249.371 100.863 249.371 100.521C249.371 100.255 249.281 100.045 249.1 99.8931C248.919 99.7314 248.634 99.6078 248.244 99.5222L246.946 99.2369C245.766 98.9801 245.177 98.3714 245.177 97.4107C245.177 96.783 245.424 96.2789 245.918 95.8985C246.423 95.518 247.079 95.3278 247.887 95.3278C248.296 95.3278 248.691 95.3849 249.071 95.499C249.452 95.6036 249.794 95.7748 250.099 96.0126C250.26 96.1267 250.332 96.2646 250.313 96.4263C250.294 96.588 250.217 96.7164 250.084 96.8115C249.961 96.8971 249.808 96.8829 249.628 96.7687C249.342 96.5785 249.052 96.4406 248.758 96.355C248.463 96.2599 248.173 96.2123 247.887 96.2123C247.355 96.2123 246.95 96.317 246.675 96.5262C246.399 96.7354 246.261 97.0113 246.261 97.3537C246.261 97.8863 246.613 98.2287 247.317 98.3809L248.615 98.6519C249.224 98.7851 249.685 98.9991 249.999 99.2939C250.313 99.5793 250.47 99.9692 250.47 100.464C250.47 101.101 250.217 101.605 249.713 101.976C249.209 102.337 248.539 102.518 247.702 102.518ZM258.619 102.518C257.944 102.518 257.359 102.371 256.865 102.076C256.37 101.781 255.985 101.367 255.709 100.835C255.443 100.293 255.31 99.6554 255.31 98.923C255.31 98.1906 255.443 97.5582 255.709 97.0255C255.985 96.4834 256.37 96.0649 256.865 95.7701C257.359 95.4752 257.944 95.3278 258.619 95.3278C259.285 95.3278 259.865 95.4752 260.36 95.7701C260.864 96.0649 261.249 96.4834 261.516 97.0255C261.791 97.5582 261.929 98.1906 261.929 98.923C261.929 99.6554 261.791 100.293 261.516 100.835C261.249 101.367 260.864 101.781 260.36 102.076C259.865 102.371 259.285 102.518 258.619 102.518ZM258.619 101.591C259.266 101.591 259.785 101.363 260.175 100.906C260.564 100.44 260.759 99.779 260.759 98.923C260.759 98.0575 260.564 97.3965 260.175 96.9399C259.785 96.4834 259.266 96.2551 258.619 96.2551C257.963 96.2551 257.44 96.4834 257.05 96.9399C256.67 97.3965 256.479 98.0575 256.479 98.923C256.479 99.779 256.67 100.44 257.05 100.906C257.44 101.363 257.963 101.591 258.619 101.591ZM264.451 102.49C264.071 102.49 263.881 102.29 263.881 101.89V96.355H262.968C262.635 96.355 262.468 96.2028 262.468 95.8985C262.468 95.6036 262.635 95.4562 262.968 95.4562H263.881V95.2137C263.881 93.4351 264.751 92.4697 266.492 92.3175L266.905 92.2747C267.076 92.2652 267.2 92.3033 267.276 92.3889C267.352 92.4745 267.39 92.5791 267.39 92.7027C267.4 92.8169 267.371 92.9215 267.305 93.0166C267.238 93.1117 267.143 93.164 267.019 93.1735L266.691 93.2021C266.111 93.2496 265.688 93.4256 265.422 93.7299C265.165 94.0343 265.036 94.4813 265.036 95.071V95.4562H266.577C266.91 95.4562 267.076 95.6036 267.076 95.8985C267.076 96.2028 266.91 96.355 266.577 96.355H265.036V101.89C265.036 102.29 264.841 102.49 264.451 102.49ZM274.55 102.518C273.732 102.518 273.118 102.304 272.709 101.876C272.3 101.439 272.096 100.811 272.096 99.993V96.355H271.14C270.807 96.355 270.641 96.2028 270.641 95.8985C270.641 95.6036 270.807 95.4562 271.14 95.4562H272.096V93.8155C272.096 93.4256 272.291 93.2306 272.681 93.2306C273.061 93.2306 273.251 93.4256 273.251 93.8155V95.4562H275.049C275.382 95.4562 275.548 95.6036 275.548 95.8985C275.548 96.2028 275.382 96.355 275.049 96.355H273.251V99.8789C273.251 100.421 273.365 100.835 273.594 101.12C273.822 101.396 274.193 101.534 274.707 101.534C274.887 101.534 275.039 101.515 275.163 101.477C275.287 101.439 275.396 101.42 275.491 101.42C275.577 101.41 275.648 101.439 275.705 101.505C275.762 101.572 275.791 101.686 275.791 101.848C275.791 101.962 275.767 102.066 275.719 102.162C275.681 102.257 275.61 102.323 275.505 102.361C275.391 102.399 275.239 102.433 275.049 102.461C274.868 102.499 274.702 102.518 274.55 102.518ZM277.324 102.49C276.944 102.49 276.753 102.29 276.753 101.89V92.8169C276.753 92.4269 276.944 92.2319 277.324 92.2319C277.714 92.2319 277.909 92.4269 277.909 92.8169V96.5975C278.137 96.179 278.456 95.8652 278.865 95.6559C279.283 95.4372 279.749 95.3278 280.263 95.3278C281.908 95.3278 282.731 96.2409 282.731 98.067V101.89C282.731 102.29 282.541 102.49 282.16 102.49C281.771 102.49 281.576 102.29 281.576 101.89V98.1383C281.576 97.4916 281.447 97.0208 281.19 96.7259C280.943 96.4216 280.544 96.2694 279.992 96.2694C279.355 96.2694 278.846 96.4691 278.465 96.8686C278.094 97.2586 277.909 97.7817 277.909 98.4379V101.89C277.909 102.29 277.714 102.49 277.324 102.49ZM287.901 102.518C286.807 102.518 285.942 102.2 285.304 101.562C284.667 100.916 284.348 100.041 284.348 98.9373C284.348 98.2239 284.491 97.5962 284.776 97.0541C285.062 96.5024 285.452 96.0792 285.946 95.7843C286.45 95.48 287.031 95.3278 287.687 95.3278C288.628 95.3278 289.366 95.6322 289.898 96.2409C290.431 96.8401 290.697 97.6675 290.697 98.7233C290.697 99.0181 290.531 99.1655 290.198 99.1655H285.475C285.514 99.955 285.742 100.559 286.16 100.977C286.579 101.386 287.159 101.591 287.901 101.591C288.215 101.591 288.533 101.553 288.857 101.477C289.18 101.391 289.494 101.244 289.798 101.034C290.017 100.892 290.198 100.863 290.34 100.949C290.493 101.034 290.569 101.168 290.569 101.348C290.578 101.52 290.483 101.672 290.283 101.805C289.969 102.033 289.594 102.209 289.156 102.333C288.728 102.456 288.31 102.518 287.901 102.518ZM287.715 96.1838C287.059 96.1838 286.541 96.3883 286.16 96.7973C285.78 97.2062 285.556 97.7436 285.49 98.4094H289.698C289.67 97.7056 289.484 97.1587 289.142 96.7687C288.809 96.3788 288.334 96.1838 287.715 96.1838ZM299.386 102.518C298.844 102.518 298.364 102.399 297.945 102.162C297.527 101.914 297.217 101.577 297.018 101.149V101.89C297.018 102.29 296.828 102.49 296.447 102.49C296.067 102.49 295.876 102.29 295.876 101.89V92.8169C295.876 92.4269 296.067 92.2319 296.447 92.2319C296.837 92.2319 297.032 92.4269 297.032 92.8169V96.6546C297.232 96.2456 297.541 95.9222 297.959 95.6845C298.378 95.4467 298.853 95.3278 299.386 95.3278C300.004 95.3278 300.542 95.4752 300.998 95.7701C301.464 96.0554 301.821 96.4691 302.068 97.0113C302.325 97.5439 302.453 98.1811 302.453 98.923C302.453 99.6554 302.325 100.293 302.068 100.835C301.821 101.367 301.464 101.781 300.998 102.076C300.542 102.371 300.004 102.518 299.386 102.518ZM299.143 101.591C299.79 101.591 300.309 101.363 300.699 100.906C301.089 100.44 301.283 99.779 301.283 98.923C301.283 98.0575 301.089 97.3965 300.699 96.9399C300.309 96.4834 299.79 96.2551 299.143 96.2551C298.497 96.2551 297.978 96.4834 297.588 96.9399C297.198 97.3965 297.003 98.0575 297.003 98.923C297.003 99.779 297.198 100.44 297.588 100.906C297.978 101.363 298.497 101.591 299.143 101.591ZM307.233 102.518C306.139 102.518 305.274 102.2 304.636 101.562C303.999 100.916 303.68 100.041 303.68 98.9373C303.68 98.2239 303.823 97.5962 304.108 97.0541C304.394 96.5024 304.784 96.0792 305.278 95.7843C305.782 95.48 306.363 95.3278 307.019 95.3278C307.96 95.3278 308.698 95.6322 309.23 96.2409C309.763 96.8401 310.029 97.6675 310.029 98.7233C310.029 99.0181 309.863 99.1655 309.53 99.1655H304.807C304.846 99.955 305.074 100.559 305.492 100.977C305.911 101.386 306.491 101.591 307.233 101.591C307.547 101.591 307.865 101.553 308.189 101.477C308.512 101.391 308.826 101.244 309.13 101.034C309.349 100.892 309.53 100.863 309.672 100.949C309.825 101.034 309.901 101.168 309.901 101.348C309.91 101.52 309.815 101.672 309.615 101.805C309.301 102.033 308.926 102.209 308.488 102.333C308.06 102.456 307.642 102.518 307.233 102.518ZM307.047 96.1838C306.391 96.1838 305.873 96.3883 305.492 96.7973C305.112 97.2062 304.888 97.7436 304.822 98.4094H309.03C309.002 97.7056 308.816 97.1587 308.474 96.7687C308.141 96.3788 307.666 96.1838 307.047 96.1838ZM313.956 102.518C313.528 102.518 313.095 102.466 312.657 102.361C312.229 102.247 311.83 102.066 311.459 101.819C311.288 101.715 311.202 101.581 311.202 101.42C311.212 101.248 311.278 101.115 311.402 101.02C311.526 100.925 311.682 100.925 311.873 101.02C312.244 101.248 312.6 101.41 312.943 101.505C313.295 101.591 313.642 101.634 313.984 101.634C314.526 101.634 314.935 101.534 315.211 101.334C315.487 101.134 315.625 100.863 315.625 100.521C315.625 100.255 315.534 100.045 315.354 99.8931C315.173 99.7314 314.888 99.6078 314.498 99.5222L313.199 99.2369C312.02 98.9801 311.43 98.3714 311.43 97.4107C311.43 96.783 311.678 96.2789 312.172 95.8985C312.676 95.518 313.333 95.3278 314.141 95.3278C314.55 95.3278 314.945 95.3849 315.325 95.499C315.706 95.6036 316.048 95.7748 316.352 96.0126C316.514 96.1267 316.585 96.2646 316.566 96.4263C316.547 96.588 316.471 96.7164 316.338 96.8115C316.215 96.8971 316.062 96.8829 315.882 96.7687C315.596 96.5785 315.306 96.4406 315.011 96.355C314.717 96.2599 314.426 96.2123 314.141 96.2123C313.608 96.2123 313.204 96.317 312.928 96.5262C312.653 96.7354 312.515 97.0113 312.515 97.3537C312.515 97.8863 312.867 98.2287 313.57 98.3809L314.869 98.6519C315.477 98.7851 315.939 98.9991 316.253 99.2939C316.566 99.5793 316.723 99.9692 316.723 100.464C316.723 101.101 316.471 101.605 315.967 101.976C315.463 102.337 314.793 102.518 313.956 102.518ZM321.111 102.518C320.293 102.518 319.68 102.304 319.271 101.876C318.862 101.439 318.657 100.811 318.657 99.993V96.355H317.701C317.369 96.355 317.202 96.2028 317.202 95.8985C317.202 95.6036 317.369 95.4562 317.701 95.4562H318.657V93.8155C318.657 93.4256 318.852 93.2306 319.242 93.2306C319.623 93.2306 319.813 93.4256 319.813 93.8155V95.4562H321.611C321.943 95.4562 322.11 95.6036 322.11 95.8985C322.11 96.2028 321.943 96.355 321.611 96.355H319.813V99.8789C319.813 100.421 319.927 100.835 320.155 101.12C320.384 101.396 320.755 101.534 321.268 101.534C321.449 101.534 321.601 101.515 321.725 101.477C321.848 101.439 321.958 101.42 322.053 101.42C322.138 101.41 322.21 101.439 322.267 101.505C322.324 101.572 322.352 101.686 322.352 101.848C322.352 101.962 322.329 102.066 322.281 102.162C322.243 102.257 322.172 102.323 322.067 102.361C321.953 102.399 321.801 102.433 321.611 102.461C321.43 102.499 321.263 102.518 321.111 102.518ZM329.007 102.518C328.531 102.518 328.103 102.428 327.723 102.247C327.352 102.057 327.057 101.8 326.838 101.477C326.619 101.153 326.51 100.792 326.51 100.392C326.51 99.8884 326.638 99.4889 326.895 99.1941C327.162 98.8992 327.594 98.69 328.194 98.5663C328.802 98.4332 329.63 98.3666 330.676 98.3666H331.132V97.9243C331.132 97.3346 331.009 96.9114 330.762 96.6546C330.524 96.3883 330.139 96.2551 329.606 96.2551C329.273 96.2551 328.935 96.2979 328.593 96.3835C328.26 96.4691 327.913 96.607 327.552 96.7973C327.39 96.8829 327.252 96.9019 327.138 96.8543C327.033 96.7973 326.957 96.7117 326.91 96.5975C326.871 96.4739 326.871 96.3502 326.91 96.2266C326.957 96.0934 327.052 95.9936 327.195 95.927C327.604 95.7178 328.013 95.5656 328.422 95.4705C328.84 95.3754 329.235 95.3278 329.606 95.3278C330.5 95.3278 331.161 95.5466 331.589 95.9841C332.026 96.4216 332.245 97.1016 332.245 98.0242V101.89C332.245 102.29 332.069 102.49 331.717 102.49C331.346 102.49 331.161 102.29 331.161 101.89V101.191C330.98 101.6 330.7 101.924 330.319 102.162C329.948 102.399 329.511 102.518 329.007 102.518ZM329.192 101.648C329.763 101.648 330.229 101.453 330.59 101.063C330.952 100.664 331.132 100.159 331.132 99.5507V99.1227H330.69C329.92 99.1227 329.311 99.1608 328.864 99.2369C328.427 99.3034 328.117 99.4271 327.937 99.6078C327.766 99.779 327.68 100.017 327.68 100.321C327.68 100.711 327.813 101.03 328.079 101.277C328.355 101.524 328.726 101.648 329.192 101.648ZM334.888 102.49C334.499 102.49 334.304 102.29 334.304 101.89V95.9413C334.304 95.5513 334.489 95.3563 334.86 95.3563C335.24 95.3563 335.431 95.5513 335.431 95.9413V96.6974C335.621 96.2599 335.916 95.927 336.315 95.6987C336.715 95.461 337.19 95.3326 337.742 95.3135C338.046 95.285 338.208 95.4372 338.227 95.7701C338.255 96.103 338.084 96.2884 337.713 96.3265L337.485 96.355C336.829 96.4121 336.329 96.6213 335.987 96.9827C335.645 97.3346 335.473 97.8197 335.473 98.4379V101.89C335.473 102.29 335.278 102.49 334.888 102.49ZM342.489 102.518C341.671 102.518 341.058 102.304 340.649 101.876C340.24 101.439 340.035 100.811 340.035 99.993V96.355H339.08C338.747 96.355 338.58 96.2028 338.58 95.8985C338.58 95.6036 338.747 95.4562 339.08 95.4562H340.035V93.8155C340.035 93.4256 340.23 93.2306 340.62 93.2306C341.001 93.2306 341.191 93.4256 341.191 93.8155V95.4562H342.989C343.322 95.4562 343.488 95.6036 343.488 95.8985C343.488 96.2028 343.322 96.355 342.989 96.355H341.191V99.8789C341.191 100.421 341.305 100.835 341.533 101.12C341.762 101.396 342.133 101.534 342.646 101.534C342.827 101.534 342.979 101.515 343.103 101.477C343.226 101.439 343.336 101.42 343.431 101.42C343.516 101.41 343.588 101.439 343.645 101.505C343.702 101.572 343.73 101.686 343.73 101.848C343.73 101.962 343.707 102.066 343.659 102.162C343.621 102.257 343.55 102.323 343.445 102.361C343.331 102.399 343.179 102.433 342.989 102.461C342.808 102.499 342.641 102.518 342.489 102.518ZM345.264 93.787C344.76 93.787 344.508 93.5492 344.508 93.0737C344.508 92.6076 344.76 92.3746 345.264 92.3746C345.768 92.3746 346.02 92.6076 346.02 93.0737C346.02 93.5492 345.768 93.787 345.264 93.787ZM345.264 102.461C344.883 102.461 344.693 102.252 344.693 101.833V95.9983C344.693 95.5894 344.883 95.3849 345.264 95.3849C345.654 95.3849 345.849 95.5894 345.849 95.9983V101.833C345.849 102.252 345.654 102.461 345.264 102.461ZM350.263 102.518C349.835 102.518 349.402 102.466 348.965 102.361C348.537 102.247 348.137 102.066 347.766 101.819C347.595 101.715 347.51 101.581 347.51 101.42C347.519 101.248 347.586 101.115 347.709 101.02C347.833 100.925 347.99 100.925 348.18 101.02C348.551 101.248 348.908 101.41 349.25 101.505C349.602 101.591 349.949 101.634 350.292 101.634C350.834 101.634 351.243 101.534 351.519 101.334C351.794 101.134 351.932 100.863 351.932 100.521C351.932 100.255 351.842 100.045 351.661 99.8931C351.48 99.7314 351.195 99.6078 350.805 99.5222L349.507 99.2369C348.328 98.9801 347.738 98.3714 347.738 97.4107C347.738 96.783 347.985 96.2789 348.48 95.8985C348.984 95.518 349.64 95.3278 350.449 95.3278C350.857 95.3278 351.252 95.3849 351.633 95.499C352.013 95.6036 352.355 95.7748 352.66 96.0126C352.822 96.1267 352.893 96.2646 352.874 96.4263C352.855 96.588 352.779 96.7164 352.646 96.8115C352.522 96.8971 352.37 96.8829 352.189 96.7687C351.904 96.5785 351.614 96.4406 351.319 96.355C351.024 96.2599 350.734 96.2123 350.449 96.2123C349.916 96.2123 349.512 96.317 349.236 96.5262C348.96 96.7354 348.822 97.0113 348.822 97.3537C348.822 97.8863 349.174 98.2287 349.878 98.3809L351.176 98.6519C351.785 98.7851 352.246 98.9991 352.56 99.2939C352.874 99.5793 353.031 99.9692 353.031 100.464C353.031 101.101 352.779 101.605 352.275 101.976C351.771 102.337 351.1 102.518 350.263 102.518ZM357.419 102.518C356.601 102.518 355.987 102.304 355.578 101.876C355.169 101.439 354.965 100.811 354.965 99.993V96.355H354.009C353.676 96.355 353.51 96.2028 353.51 95.8985C353.51 95.6036 353.676 95.4562 354.009 95.4562H354.965V93.8155C354.965 93.4256 355.16 93.2306 355.55 93.2306C355.93 93.2306 356.12 93.4256 356.12 93.8155V95.4562H357.918C358.251 95.4562 358.417 95.6036 358.417 95.8985C358.417 96.2028 358.251 96.355 357.918 96.355H356.12V99.8789C356.12 100.421 356.235 100.835 356.463 101.12C356.691 101.396 357.062 101.534 357.576 101.534C357.756 101.534 357.909 101.515 358.032 101.477C358.156 101.439 358.265 101.42 358.36 101.42C358.446 101.41 358.517 101.439 358.574 101.505C358.631 101.572 358.66 101.686 358.66 101.848C358.66 101.962 358.636 102.066 358.589 102.162C358.551 102.257 358.479 102.323 358.375 102.361C358.26 102.399 358.108 102.433 357.918 102.461C357.737 102.499 357.571 102.518 357.419 102.518ZM361.879 102.518C361.451 102.518 361.018 102.466 360.58 102.361C360.152 102.247 359.753 102.066 359.382 101.819C359.211 101.715 359.125 101.581 359.125 101.42C359.135 101.248 359.201 101.115 359.325 101.02C359.449 100.925 359.605 100.925 359.796 101.02C360.167 101.248 360.523 101.41 360.866 101.505C361.218 101.591 361.565 101.634 361.907 101.634C362.449 101.634 362.858 101.534 363.134 101.334C363.41 101.134 363.548 100.863 363.548 100.521C363.548 100.255 363.457 100.045 363.277 99.8931C363.096 99.7314 362.811 99.6078 362.421 99.5222L361.122 99.2369C359.943 98.9801 359.353 98.3714 359.353 97.4107C359.353 96.783 359.601 96.2789 360.095 95.8985C360.599 95.518 361.256 95.3278 362.064 95.3278C362.473 95.3278 362.868 95.3849 363.248 95.499C363.629 95.6036 363.971 95.7748 364.275 96.0126C364.437 96.1267 364.508 96.2646 364.489 96.4263C364.47 96.588 364.394 96.7164 364.261 96.8115C364.137 96.8971 363.985 96.8829 363.805 96.7687C363.519 96.5785 363.229 96.4406 362.934 96.355C362.639 96.2599 362.349 96.2123 362.064 96.2123C361.531 96.2123 361.127 96.317 360.851 96.5262C360.576 96.7354 360.438 97.0113 360.438 97.3537C360.438 97.8863 360.79 98.2287 361.493 98.3809L362.792 98.6519C363.4 98.7851 363.862 98.9991 364.176 99.2939C364.489 99.5793 364.646 99.9692 364.646 100.464C364.646 101.101 364.394 101.605 363.89 101.976C363.386 102.337 362.716 102.518 361.879 102.518ZM175.629 112.787C175.124 112.787 174.872 112.549 174.872 112.074C174.872 111.608 175.124 111.375 175.629 111.375C176.133 111.375 176.385 111.608 176.385 112.074C176.385 112.549 176.133 112.787 175.629 112.787ZM175.629 121.461C175.248 121.461 175.058 121.252 175.058 120.833V114.998C175.058 114.589 175.248 114.385 175.629 114.385C176.018 114.385 176.213 114.589 176.213 114.998V120.833C176.213 121.252 176.018 121.461 175.629 121.461ZM178.859 121.49C178.478 121.49 178.288 121.29 178.288 120.89V114.941C178.288 114.551 178.474 114.356 178.845 114.356C179.225 114.356 179.415 114.551 179.415 114.941V115.64C179.643 115.203 179.967 114.875 180.385 114.656C180.804 114.437 181.275 114.328 181.798 114.328C183.443 114.328 184.266 115.241 184.266 117.067V120.89C184.266 121.29 184.076 121.49 183.695 121.49C183.305 121.49 183.11 121.29 183.11 120.89V117.138C183.11 116.492 182.982 116.021 182.725 115.726C182.478 115.422 182.078 115.269 181.527 115.269C180.889 115.269 180.381 115.469 180 115.869C179.629 116.259 179.444 116.782 179.444 117.438V120.89C179.444 121.29 179.249 121.49 178.859 121.49ZM192.686 121.518C191.868 121.518 191.254 121.304 190.845 120.876C190.436 120.439 190.232 119.811 190.232 118.993V115.355H189.276C188.943 115.355 188.777 115.203 188.777 114.898C188.777 114.604 188.943 114.456 189.276 114.456H190.232V112.816C190.232 112.426 190.427 112.231 190.817 112.231C191.197 112.231 191.387 112.426 191.387 112.816V114.456H193.185C193.518 114.456 193.684 114.604 193.684 114.898C193.684 115.203 193.518 115.355 193.185 115.355H191.387V118.879C191.387 119.421 191.502 119.835 191.73 120.12C191.958 120.396 192.329 120.534 192.843 120.534C193.023 120.534 193.175 120.515 193.299 120.477C193.423 120.439 193.532 120.42 193.627 120.42C193.713 120.41 193.784 120.439 193.841 120.505C193.898 120.572 193.927 120.686 193.927 120.848C193.927 120.962 193.903 121.066 193.856 121.162C193.817 121.257 193.746 121.323 193.642 121.361C193.527 121.399 193.375 121.433 193.185 121.461C193.004 121.499 192.838 121.518 192.686 121.518ZM195.46 121.49C195.08 121.49 194.889 121.29 194.889 120.89V111.817C194.889 111.427 195.08 111.232 195.46 111.232C195.85 111.232 196.045 111.427 196.045 111.817V115.598C196.273 115.179 196.592 114.865 197.001 114.656C197.419 114.437 197.885 114.328 198.399 114.328C200.044 114.328 200.867 115.241 200.867 117.067V120.89C200.867 121.29 200.677 121.49 200.296 121.49C199.907 121.49 199.712 121.29 199.712 120.89V117.138C199.712 116.492 199.583 116.021 199.326 115.726C199.079 115.422 198.68 115.269 198.128 115.269C197.491 115.269 196.982 115.469 196.601 115.869C196.23 116.259 196.045 116.782 196.045 117.438V120.89C196.045 121.29 195.85 121.49 195.46 121.49ZM206.037 121.518C204.943 121.518 204.078 121.2 203.44 120.562C202.803 119.916 202.484 119.041 202.484 117.937C202.484 117.224 202.627 116.596 202.912 116.054C203.198 115.502 203.588 115.079 204.082 114.784C204.586 114.48 205.167 114.328 205.823 114.328C206.764 114.328 207.502 114.632 208.034 115.241C208.567 115.84 208.833 116.668 208.833 117.723C208.833 118.018 208.667 118.166 208.334 118.166H203.611C203.65 118.955 203.878 119.559 204.296 119.977C204.715 120.386 205.295 120.591 206.037 120.591C206.351 120.591 206.669 120.553 206.993 120.477C207.316 120.391 207.63 120.244 207.934 120.034C208.153 119.892 208.334 119.863 208.476 119.949C208.629 120.034 208.705 120.168 208.705 120.348C208.714 120.52 208.619 120.672 208.419 120.805C208.105 121.033 207.73 121.209 207.292 121.333C206.864 121.456 206.446 121.518 206.037 121.518ZM205.851 115.184C205.195 115.184 204.677 115.388 204.296 115.797C203.916 116.206 203.692 116.744 203.626 117.409H207.834C207.806 116.706 207.62 116.159 207.278 115.769C206.945 115.379 206.47 115.184 205.851 115.184ZM216.409 121.49C216.057 121.49 215.815 121.309 215.682 120.948L213.556 115.17C213.461 114.922 213.461 114.727 213.556 114.585C213.661 114.432 213.822 114.356 214.041 114.356C214.184 114.356 214.298 114.39 214.383 114.456C214.478 114.523 214.555 114.646 214.612 114.827L216.438 120.034L218.321 114.827C218.435 114.513 218.649 114.356 218.963 114.356C219.267 114.356 219.477 114.513 219.591 114.827L221.445 120.049L223.3 114.799C223.367 114.627 223.443 114.513 223.528 114.456C223.623 114.39 223.742 114.356 223.885 114.356C224.113 114.356 224.261 114.442 224.327 114.613C224.394 114.775 224.384 114.96 224.299 115.17L222.173 120.948C222.03 121.309 221.788 121.49 221.445 121.49C221.093 121.49 220.856 121.309 220.732 120.948L218.934 116.011L217.137 120.948C217.004 121.309 216.761 121.49 216.409 121.49ZM228.707 121.518C228.032 121.518 227.447 121.371 226.952 121.076C226.457 120.781 226.072 120.367 225.796 119.835C225.53 119.293 225.397 118.655 225.397 117.923C225.397 117.191 225.53 116.558 225.796 116.026C226.072 115.483 226.457 115.065 226.952 114.77C227.447 114.475 228.032 114.328 228.707 114.328C229.373 114.328 229.953 114.475 230.447 114.77C230.951 115.065 231.337 115.483 231.603 116.026C231.879 116.558 232.017 117.191 232.017 117.923C232.017 118.655 231.879 119.293 231.603 119.835C231.337 120.367 230.951 120.781 230.447 121.076C229.953 121.371 229.373 121.518 228.707 121.518ZM228.707 120.591C229.354 120.591 229.872 120.363 230.262 119.906C230.652 119.44 230.847 118.779 230.847 117.923C230.847 117.057 230.652 116.396 230.262 115.94C229.872 115.483 229.354 115.255 228.707 115.255C228.051 115.255 227.527 115.483 227.138 115.94C226.757 116.396 226.567 117.057 226.567 117.923C226.567 118.779 226.757 119.44 227.138 119.906C227.527 120.363 228.051 120.591 228.707 120.591ZM234.252 121.49C233.862 121.49 233.667 121.29 233.667 120.89V114.941C233.667 114.551 233.852 114.356 234.223 114.356C234.604 114.356 234.794 114.551 234.794 114.941V115.697C234.984 115.26 235.279 114.927 235.678 114.699C236.078 114.461 236.553 114.333 237.105 114.314C237.409 114.285 237.571 114.437 237.59 114.77C237.619 115.103 237.448 115.288 237.077 115.326L236.848 115.355C236.192 115.412 235.693 115.621 235.35 115.983C235.008 116.335 234.837 116.82 234.837 117.438V120.89C234.837 121.29 234.642 121.49 234.252 121.49ZM240.806 121.518C240.121 121.518 239.598 121.314 239.237 120.905C238.875 120.486 238.694 119.882 238.694 119.093V111.817C238.694 111.427 238.885 111.232 239.265 111.232C239.655 111.232 239.85 111.427 239.85 111.817V119.007C239.85 120.025 240.254 120.534 241.063 120.534C241.148 120.534 241.224 120.529 241.291 120.52C241.358 120.51 241.424 120.505 241.491 120.505C241.595 120.496 241.667 120.52 241.705 120.577C241.752 120.634 241.776 120.748 241.776 120.919C241.776 121.242 241.614 121.428 241.291 121.475C241.215 121.494 241.134 121.504 241.048 121.504C240.963 121.513 240.882 121.518 240.806 121.518ZM245.4 121.518C244.782 121.518 244.24 121.371 243.774 121.076C243.317 120.781 242.96 120.367 242.704 119.835C242.456 119.293 242.333 118.655 242.333 117.923C242.333 117.181 242.456 116.544 242.704 116.011C242.96 115.469 243.317 115.055 243.774 114.77C244.24 114.475 244.782 114.328 245.4 114.328C245.942 114.328 246.418 114.447 246.827 114.684C247.245 114.922 247.554 115.25 247.754 115.669V111.817C247.754 111.427 247.949 111.232 248.339 111.232C248.719 111.232 248.91 111.427 248.91 111.817V120.89C248.91 121.29 248.719 121.49 248.339 121.49C247.958 121.49 247.768 121.29 247.768 120.89V120.149C247.559 120.577 247.245 120.914 246.827 121.162C246.418 121.399 245.942 121.518 245.4 121.518ZM245.643 120.591C246.289 120.591 246.808 120.363 247.198 119.906C247.588 119.44 247.783 118.779 247.783 117.923C247.783 117.057 247.588 116.396 247.198 115.94C246.808 115.483 246.289 115.255 245.643 115.255C244.986 115.255 244.463 115.483 244.073 115.94C243.693 116.396 243.503 117.057 243.503 117.923C243.503 118.779 243.693 119.44 244.073 119.906C244.463 120.363 244.986 120.591 245.643 120.591ZM251.549 121.447C251.311 121.447 251.121 121.376 250.978 121.233C250.836 121.081 250.764 120.89 250.764 120.662C250.764 120.434 250.836 120.248 250.978 120.106C251.121 119.954 251.311 119.878 251.549 119.878C251.787 119.878 251.972 119.954 252.105 120.106C252.248 120.248 252.319 120.434 252.319 120.662C252.319 120.89 252.248 121.081 252.105 121.233C251.972 121.376 251.787 121.447 251.549 121.447Z" fill="#EBEBF5" fill-opacity="0.6" shape-rendering="crispEdges"/>
</g>
<g filter="url(#filter3_b_2_321)">
<rect x="80.5641" y="156" width="267" height="50" rx="25" fill="#97A9F6" fill-opacity="0.5" style="mix-blend-mode:overlay"/>
<path d="M155.09 187.777C153.659 187.777 152.453 187.51 151.47 186.975C150.488 186.428 149.741 185.65 149.231 184.643C148.734 183.635 148.485 182.435 148.485 181.042C148.485 179.661 148.74 178.467 149.25 177.46C149.76 176.44 150.5 175.657 151.47 175.109C152.44 174.562 153.603 174.288 154.959 174.288C155.705 174.288 156.433 174.388 157.142 174.587C157.863 174.774 158.529 175.084 159.138 175.52C159.349 175.669 159.468 175.856 159.492 176.079C159.53 176.291 159.492 176.496 159.38 176.695C159.281 176.882 159.132 177.012 158.933 177.087C158.734 177.149 158.51 177.106 158.261 176.956C157.776 176.621 157.266 176.378 156.731 176.229C156.196 176.067 155.606 175.986 154.959 175.986C153.504 175.986 152.397 176.428 151.638 177.311C150.879 178.181 150.5 179.425 150.5 181.042C150.5 182.696 150.886 183.952 151.657 184.811C152.44 185.669 153.609 186.098 155.164 186.098C156.109 186.098 157.048 185.942 157.981 185.632V182.105H155.575C155.04 182.105 154.772 181.857 154.772 181.359C154.772 180.887 155.04 180.65 155.575 180.65H158.802C159.337 180.65 159.604 180.918 159.604 181.453V186.154C159.604 186.627 159.43 186.931 159.082 187.068C158.547 187.28 157.919 187.454 157.198 187.59C156.476 187.715 155.774 187.777 155.09 187.777ZM166.198 187.777C164.706 187.777 163.531 187.36 162.672 186.527C161.814 185.681 161.385 184.531 161.385 183.076C161.385 182.143 161.572 181.322 161.945 180.613C162.33 179.892 162.859 179.332 163.531 178.934C164.202 178.536 164.973 178.337 165.844 178.337C167.1 178.337 168.089 178.741 168.81 179.55C169.532 180.346 169.892 181.446 169.892 182.852C169.892 183.275 169.644 183.486 169.146 183.486H163.213C163.35 185.377 164.351 186.322 166.217 186.322C166.59 186.322 166.982 186.278 167.392 186.191C167.803 186.092 168.201 185.918 168.586 185.669C168.848 185.52 169.071 185.47 169.258 185.52C169.457 185.557 169.6 185.663 169.687 185.837C169.774 185.998 169.787 186.185 169.724 186.396C169.675 186.595 169.532 186.77 169.295 186.919C168.872 187.205 168.375 187.423 167.803 187.572C167.243 187.709 166.708 187.777 166.198 187.777ZM165.919 179.661C165.135 179.661 164.513 179.904 164.053 180.389C163.593 180.874 163.313 181.521 163.213 182.329H168.307C168.269 181.484 168.045 180.831 167.635 180.37C167.224 179.898 166.652 179.661 165.919 179.661ZM175.361 187.777C174.217 187.777 173.365 187.485 172.805 186.9C172.246 186.316 171.966 185.47 171.966 184.363V179.96H170.846C170.324 179.96 170.063 179.717 170.063 179.232C170.063 178.747 170.324 178.505 170.846 178.505H171.966V176.583C171.966 175.949 172.283 175.632 172.917 175.632C173.539 175.632 173.85 175.949 173.85 176.583V178.505H176.033C176.555 178.505 176.816 178.747 176.816 179.232C176.816 179.717 176.555 179.96 176.033 179.96H173.85V184.214C173.85 184.873 173.987 185.37 174.26 185.706C174.547 186.042 175.007 186.21 175.641 186.21C175.865 186.21 176.058 186.191 176.219 186.154C176.381 186.104 176.524 186.073 176.648 186.061C176.785 186.061 176.897 186.11 176.984 186.21C177.071 186.297 177.115 186.471 177.115 186.732C177.115 186.931 177.078 187.112 177.003 187.273C176.941 187.423 176.823 187.522 176.648 187.572C176.499 187.634 176.294 187.684 176.033 187.721C175.784 187.758 175.56 187.777 175.361 187.777ZM185.509 187.777C184.961 187.777 184.395 187.715 183.811 187.59C183.226 187.466 182.698 187.255 182.225 186.956C182.014 186.832 181.883 186.676 181.833 186.49C181.783 186.303 181.796 186.129 181.871 185.967C181.945 185.806 182.063 185.694 182.225 185.632C182.399 185.557 182.592 185.576 182.803 185.688C183.288 185.949 183.755 186.135 184.203 186.247C184.65 186.359 185.092 186.415 185.527 186.415C186.186 186.415 186.684 186.297 187.02 186.061C187.355 185.824 187.523 185.507 187.523 185.109C187.523 184.786 187.411 184.537 187.188 184.363C186.964 184.176 186.628 184.033 186.18 183.934L184.408 183.579C182.841 183.256 182.057 182.448 182.057 181.154C182.057 180.296 182.399 179.612 183.083 179.102C183.767 178.592 184.663 178.337 185.77 178.337C186.889 178.337 187.853 178.611 188.661 179.158C188.86 179.282 188.979 179.438 189.016 179.624C189.053 179.798 189.028 179.966 188.941 180.128C188.854 180.277 188.724 180.383 188.55 180.445C188.388 180.507 188.195 180.482 187.971 180.37C187.598 180.147 187.225 179.985 186.852 179.885C186.479 179.773 186.118 179.717 185.77 179.717C185.123 179.717 184.632 179.842 184.296 180.091C183.96 180.327 183.792 180.65 183.792 181.061C183.792 181.683 184.203 182.081 185.023 182.255L186.796 182.609C187.604 182.771 188.214 183.045 188.624 183.43C189.047 183.816 189.258 184.338 189.258 184.997C189.258 185.868 188.916 186.552 188.232 187.049C187.548 187.535 186.64 187.777 185.509 187.777ZM194.697 187.777C193.552 187.777 192.7 187.485 192.141 186.9C191.581 186.316 191.301 185.47 191.301 184.363V179.96H190.182C189.659 179.96 189.398 179.717 189.398 179.232C189.398 178.747 189.659 178.505 190.182 178.505H191.301V176.583C191.301 175.949 191.618 175.632 192.253 175.632C192.875 175.632 193.185 175.949 193.185 176.583V178.505H195.368C195.891 178.505 196.152 178.747 196.152 179.232C196.152 179.717 195.891 179.96 195.368 179.96H193.185V184.214C193.185 184.873 193.322 185.37 193.596 185.706C193.882 186.042 194.342 186.21 194.976 186.21C195.2 186.21 195.393 186.191 195.555 186.154C195.717 186.104 195.86 186.073 195.984 186.061C196.121 186.061 196.233 186.11 196.32 186.21C196.407 186.297 196.45 186.471 196.45 186.732C196.45 186.931 196.413 187.112 196.338 187.273C196.276 187.423 196.158 187.522 195.984 187.572C195.835 187.634 195.629 187.684 195.368 187.721C195.12 187.758 194.896 187.777 194.697 187.777ZM200.093 187.777C199.458 187.777 198.892 187.653 198.395 187.404C197.897 187.155 197.499 186.819 197.201 186.396C196.915 185.974 196.772 185.495 196.772 184.96C196.772 184.288 196.94 183.76 197.276 183.374C197.624 182.989 198.19 182.709 198.973 182.535C199.769 182.36 200.839 182.273 202.182 182.273H202.817V181.788C202.817 181.079 202.667 180.569 202.369 180.259C202.07 179.948 201.579 179.792 200.895 179.792C200.497 179.792 200.08 179.842 199.645 179.941C199.222 180.041 198.781 180.209 198.32 180.445C198.059 180.569 197.842 180.588 197.667 180.501C197.506 180.414 197.394 180.277 197.332 180.091C197.269 179.904 197.276 179.711 197.35 179.512C197.425 179.313 197.58 179.164 197.817 179.064C198.364 178.816 198.905 178.635 199.44 178.523C199.975 178.399 200.478 178.337 200.951 178.337C202.195 178.337 203.115 178.635 203.712 179.232C204.309 179.817 204.608 180.737 204.608 181.994V186.788C204.608 187.423 204.315 187.74 203.731 187.74C203.134 187.74 202.835 187.423 202.835 186.788V186.098C202.611 186.62 202.263 187.031 201.79 187.329C201.318 187.628 200.752 187.777 200.093 187.777ZM200.466 186.434C201.137 186.434 201.697 186.197 202.145 185.725C202.593 185.252 202.817 184.655 202.817 183.934V183.43H202.201C201.293 183.43 200.578 183.474 200.055 183.561C199.545 183.648 199.179 183.797 198.955 184.008C198.743 184.207 198.638 184.487 198.638 184.848C198.638 185.321 198.799 185.706 199.123 186.005C199.446 186.291 199.894 186.434 200.466 186.434ZM207.707 187.74C207.072 187.74 206.755 187.423 206.755 186.788V179.326C206.755 178.691 207.06 178.374 207.669 178.374C208.279 178.374 208.583 178.691 208.583 179.326V180.128C208.832 179.568 209.205 179.139 209.703 178.841C210.213 178.542 210.828 178.368 211.55 178.318C212.01 178.281 212.259 178.53 212.296 179.064C212.346 179.612 212.078 179.91 211.494 179.96L211.139 179.997C209.485 180.159 208.658 181.011 208.658 182.553V186.788C208.658 187.423 208.341 187.74 207.707 187.74ZM217.658 187.777C216.513 187.777 215.661 187.485 215.102 186.9C214.542 186.316 214.262 185.47 214.262 184.363V179.96H213.143C212.62 179.96 212.359 179.717 212.359 179.232C212.359 178.747 212.62 178.505 213.143 178.505H214.262V176.583C214.262 175.949 214.579 175.632 215.214 175.632C215.836 175.632 216.147 175.949 216.147 176.583V178.505H218.329C218.852 178.505 219.113 178.747 219.113 179.232C219.113 179.717 218.852 179.96 218.329 179.96H216.147V184.214C216.147 184.873 216.283 185.37 216.557 185.706C216.843 186.042 217.303 186.21 217.938 186.21C218.161 186.21 218.354 186.191 218.516 186.154C218.678 186.104 218.821 186.073 218.945 186.061C219.082 186.061 219.194 186.11 219.281 186.21C219.368 186.297 219.411 186.471 219.411 186.732C219.411 186.931 219.374 187.112 219.299 187.273C219.237 187.423 219.119 187.522 218.945 187.572C218.796 187.634 218.591 187.684 218.329 187.721C218.081 187.758 217.857 187.777 217.658 187.777ZM224.325 187.777C222.832 187.777 221.657 187.36 220.799 186.527C219.94 185.681 219.511 184.531 219.511 183.076C219.511 182.143 219.698 181.322 220.071 180.613C220.457 179.892 220.985 179.332 221.657 178.934C222.328 178.536 223.1 178.337 223.97 178.337C225.226 178.337 226.215 178.741 226.937 179.55C227.658 180.346 228.019 181.446 228.019 182.852C228.019 183.275 227.77 183.486 227.272 183.486H221.34C221.476 185.377 222.478 186.322 224.343 186.322C224.716 186.322 225.108 186.278 225.519 186.191C225.929 186.092 226.327 185.918 226.713 185.669C226.974 185.52 227.198 185.47 227.384 185.52C227.583 185.557 227.726 185.663 227.813 185.837C227.9 185.998 227.913 186.185 227.851 186.396C227.801 186.595 227.658 186.77 227.422 186.919C226.999 187.205 226.501 187.423 225.929 187.572C225.369 187.709 224.835 187.777 224.325 187.777ZM224.045 179.661C223.261 179.661 222.639 179.904 222.179 180.389C221.719 180.874 221.439 181.521 221.34 182.329H226.433C226.395 181.484 226.172 180.831 225.761 180.37C225.351 179.898 224.779 179.661 224.045 179.661ZM233.095 187.777C232.299 187.777 231.596 187.59 230.987 187.217C230.39 186.832 229.924 186.285 229.588 185.576C229.252 184.867 229.084 184.027 229.084 183.057C229.084 182.087 229.252 181.254 229.588 180.557C229.924 179.848 230.39 179.301 230.987 178.915C231.584 178.53 232.287 178.337 233.095 178.337C233.779 178.337 234.389 178.486 234.924 178.785C235.458 179.083 235.856 179.487 236.118 179.997V175.277C236.118 174.643 236.428 174.326 237.05 174.326C237.685 174.326 238.002 174.643 238.002 175.277V186.788C238.002 187.423 237.691 187.74 237.069 187.74C236.447 187.74 236.136 187.423 236.136 186.788V186.079C235.863 186.602 235.458 187.018 234.924 187.329C234.389 187.628 233.779 187.777 233.095 187.777ZM233.58 186.322C234.351 186.322 234.973 186.042 235.446 185.482C235.919 184.923 236.155 184.114 236.155 183.057C236.155 182 235.919 181.198 235.446 180.65C234.973 180.091 234.351 179.811 233.58 179.811C232.797 179.811 232.169 180.091 231.696 180.65C231.223 181.198 230.987 182 230.987 183.057C230.987 184.114 231.223 184.923 231.696 185.482C232.169 186.042 232.797 186.322 233.58 186.322ZM245.604 187.74C244.982 187.74 244.671 187.423 244.671 186.788V179.326C244.671 178.691 244.976 178.374 245.586 178.374C246.195 178.374 246.5 178.691 246.5 179.326V180.016C246.811 179.469 247.233 179.052 247.768 178.766C248.316 178.48 248.925 178.337 249.597 178.337C251.748 178.337 252.824 179.556 252.824 181.994V186.788C252.824 187.423 252.513 187.74 251.891 187.74C251.257 187.74 250.94 187.423 250.94 186.788V182.105C250.94 181.322 250.784 180.75 250.473 180.389C250.175 180.028 249.702 179.848 249.056 179.848C248.297 179.848 247.687 180.091 247.227 180.576C246.78 181.048 246.556 181.676 246.556 182.46V186.788C246.556 187.423 246.238 187.74 245.604 187.74ZM258.928 187.777C258.008 187.777 257.212 187.584 256.54 187.199C255.868 186.813 255.346 186.272 254.973 185.576C254.612 184.867 254.432 184.027 254.432 183.057C254.432 182.087 254.612 181.254 254.973 180.557C255.346 179.848 255.868 179.301 256.54 178.915C257.212 178.53 258.008 178.337 258.928 178.337C259.824 178.337 260.607 178.53 261.279 178.915C261.95 179.301 262.473 179.848 262.846 180.557C263.219 181.254 263.406 182.087 263.406 183.057C263.406 184.027 263.219 184.867 262.846 185.576C262.473 186.272 261.95 186.813 261.279 187.199C260.607 187.584 259.824 187.777 258.928 187.777ZM258.928 186.322C259.699 186.322 260.321 186.042 260.794 185.482C261.266 184.923 261.503 184.114 261.503 183.057C261.503 182 261.266 181.198 260.794 180.65C260.321 180.091 259.699 179.811 258.928 179.811C258.144 179.811 257.516 180.091 257.044 180.65C256.571 181.198 256.335 182 256.335 183.057C256.335 184.114 256.571 184.923 257.044 185.482C257.516 186.042 258.144 186.322 258.928 186.322ZM268.231 187.74C267.684 187.74 267.304 187.466 267.093 186.919L264.35 179.661C264.201 179.288 264.201 178.984 264.35 178.747C264.512 178.499 264.779 178.374 265.153 178.374C265.376 178.374 265.557 178.43 265.694 178.542C265.83 178.642 265.955 178.841 266.067 179.139L268.287 185.408L270.6 179.064C270.774 178.604 271.085 178.374 271.533 178.374C271.993 178.374 272.304 178.604 272.466 179.064L274.742 185.445L277.018 179.102C277.118 178.816 277.242 178.623 277.391 178.523C277.553 178.424 277.733 178.374 277.932 178.374C278.305 178.374 278.542 178.505 278.641 178.766C278.753 179.027 278.747 179.326 278.623 179.661L275.88 186.919C275.656 187.466 275.283 187.74 274.761 187.74C274.201 187.74 273.822 187.466 273.623 186.919L271.477 181.098L269.35 186.919C269.151 187.466 268.778 187.74 268.231 187.74Z" fill="white"/>
<rect x="81.245" y="156.681" width="265.638" height="48.6381" rx="24.3191" stroke="white" stroke-opacity="0.5" stroke-width="1.36188" style="mix-blend-mode:overlay"/>
</g>
<rect x="27.5487" y="17.4308" width="372.031" height="230.723" rx="32.3744" stroke="white" stroke-opacity="0.3" stroke-width="1.09744" style="mix-blend-mode:overlay"/>
</g>
<defs>
<filter id="filter0_b_2_321" x="-5.92308" y="-16.041" width="438.974" height="297.667" filterUnits="userSpaceOnUse" color-interpolation-filters="sRGB">
<feFlood flood-opacity="0" result="BackgroundImageFix"/>
<feGaussianBlur in="BackgroundImage" stdDeviation="16.4615"/>
<feComposite in2="SourceAlpha" operator="in" result="effect1_backgroundBlur_2_321"/>
<feBlend mode="normal" in="SourceGraphic" in2="effect1_backgroundBlur_2_321" result="shape"/>
</filter>
<filter id="filter1_d_2_321" x="18.4398" y="0.525849" width="391.256" height="153.639" filterUnits="userSpaceOnUse" color-interpolation-filters="sRGB">
<feFlood flood-opacity="0" result="BackgroundImageFix"/>
<feColorMatrix in="SourceAlpha" type="matrix" values="0 0 0 0 0 0 0 0 0 0 0 0 0 0 0 0 0 0 127 0" result="hardAlpha"/>
<feOffset dy="10.9744"/>
<feGaussianBlur stdDeviation="32.9231"/>
<feComposite in2="hardAlpha" operator="out"/>
<feColorMatrix type="matrix" values="0 0 0 0 0 0 0 0 0 0 0 0 0 0 0 0 0 0 0.5 0"/>
<feBlend mode="overlay" in2="BackgroundImageFix" result="effect1_dropShadow_2_321"/>
<feBlend mode="normal" in="SourceGraphic" in2="effect1_dropShadow_2_321" result="shape"/>
</filter>
<filter id="filter2_d_2_321" x="-3.81289" y="37.3601" width="434.305" height="160.979" filterUnits="userSpaceOnUse" color-interpolation-filters="sRGB">
<feFlood flood-opacity="0" result="BackgroundImageFix"/>
<feColorMatrix in="SourceAlpha" type="matrix" values="0 0 0 0 0 0 0 0 0 0 0 0 0 0 0 0 0 0 127 0" result="hardAlpha"/>
<feOffset dy="10.9744"/>
<feGaussianBlur stdDeviation="32.9231"/>
<feComposite in2="hardAlpha" operator="out"/>
<feColorMatrix type="matrix" values="0 0 0 0 0 0 0 0 0 0 0 0 0 0 0 0 0 0 0.5 0"/>
<feBlend mode="overlay" in2="BackgroundImageFix" result="effect1_dropShadow_2_321"/>
<feBlend mode="normal" in="SourceGraphic" in2="effect1_dropShadow_2_321" result="shape"/>
</filter>
<filter id="filter3_b_2_321" x="-1.14861" y="74.2873" width="430.425" height="213.425" filterUnits="userSpaceOnUse" color-interpolation-filters="sRGB">
<feFlood flood-opacity="0" result="BackgroundImageFix"/>
<feGaussianBlur in="BackgroundImage" stdDeviation="40.8563"/>
<feComposite in2="SourceAlpha" operator="in" result="effect1_backgroundBlur_2_321"/>
<feBlend mode="normal" in="SourceGraphic" in2="effect1_backgroundBlur_2_321" result="shape"/>
</filter>
</defs>
</svg>
