<svg id="Layer_2" data-name="Layer 2" xmlns="http://www.w3.org/2000/svg" width="29" height="29" viewBox="0 0 29 29">
  <g id="invisible_box" data-name="invisible box">
    <rect id="Rectangle_522" data-name="Rectangle 522" width="29" height="29" fill="none"/>
  </g>
  <g id="icons_Q2" data-name="icons Q2" transform="translate(1.202 1.188)">
    <path id="Path_59" data-name="Path 59" d="M33.606,28H31.2A1.2,1.2,0,0,0,30,29.2v2.4a1.2,1.2,0,0,0,1.2,1.2h2.4a1.2,1.2,0,0,0,1.2-1.2V29.2A1.2,1.2,0,0,0,33.606,28Zm0,0H31.2A1.2,1.2,0,0,0,30,29.2v2.4a1.2,1.2,0,0,0,1.2,1.2h2.4a1.2,1.2,0,0,0,1.2-1.2V29.2A1.2,1.2,0,0,0,33.606,28Z" transform="translate(-13.174 -12.362)" fill="#43aa8b"/>
    <path id="Path_60" data-name="Path 60" d="M27.239,5.6H21.831V3.253a1.262,1.262,0,0,0-1.022-1.262,1.2,1.2,0,0,0-1.382,1.2V5.6H11.014V3.253A1.262,1.262,0,0,0,9.992,1.991a1.2,1.2,0,0,0-1.382,1.2V5.6H3.2A1.2,1.2,0,0,0,2,6.8v19.23a1.2,1.2,0,0,0,1.2,1.2H27.239a1.2,1.2,0,0,0,1.2-1.2V6.8A1.2,1.2,0,0,0,27.239,5.6Zm-1.2,19.23H4.4V12.808H26.037Zm0-14.422H4.4V8H26.037Z" transform="translate(-2 -1.977)" fill="#43aa8b"/>
    <rect id="Rectangle_523" data-name="Rectangle 523" width="5" height="5" rx="2" transform="translate(16.798 15.812)" fill="#43aa8b"/>
  </g>
</svg>
