<svg id="Layer_2" data-name="Layer 2" xmlns="http://www.w3.org/2000/svg" width="29" height="29" viewBox="0 0 29 29">
  <g id="invisible_box" data-name="invisible box">
    <rect id="Rectangle_521" data-name="Rectangle 521" width="29" height="29" fill="none"/>
  </g>
  <g id="icons_Q2" data-name="icons Q2" transform="translate(1.208 1.208)">
    <g id="Group_60" data-name="Group 60">
      <path id="Path_57" data-name="Path 57" d="M23.229,16.471V13.208a1.208,1.208,0,0,0-2.417,0v3.263A3.081,3.081,0,0,0,19,19.25a3.021,3.021,0,1,0,6.042,0A3.081,3.081,0,0,0,23.229,16.471Z" transform="translate(-8.729 -5.958)" fill="#43aa8b"/>
      <path id="Path_58" data-name="Path 58" d="M15.291,2A13.352,13.352,0,0,0,2,15.292a13.05,13.05,0,0,0,3.806,9.3,1.148,1.148,0,0,0,1.692,0h0L9.31,22.783a1.208,1.208,0,0,0-1.692-1.692L6.712,22a11.6,11.6,0,0,1-2.235-5.5H5.625a1.208,1.208,0,0,0,0-2.417H4.477a11.177,11.177,0,0,1,2.3-5.558h0l.846.785A1.2,1.2,0,1,0,9.31,7.619l-.785-.846h0a11.177,11.177,0,0,1,5.558-2.3h0V5.625a1.208,1.208,0,0,0,2.417,0V4.477h0a11.177,11.177,0,0,1,5.558,2.3h0l-.785.846A1.2,1.2,0,1,0,22.964,9.31l.846-.785h0a11.177,11.177,0,0,1,2.3,5.558H24.958a1.208,1.208,0,0,0,0,2.417h1.148A11.6,11.6,0,0,1,23.871,22l-.906-.906a1.208,1.208,0,1,0-1.692,1.692l1.873,1.873a1.208,1.208,0,0,0,1.631-.06,13.05,13.05,0,0,0,3.806-9.3A13.352,13.352,0,0,0,15.291,2Z" transform="translate(-1.999 -2)" fill="#43aa8b"/>
    </g>
  </g>
</svg>
