<svg width="21" height="18" viewBox="0 0 21 18" fill="none" xmlns="http://www.w3.org/2000/svg">
<path fill-rule="evenodd" clip-rule="evenodd" d="M0.365013 1.81993C0.365013 1.44572 0.513668 1.08684 0.778275 0.822229C1.04288 0.557621 1.40177 0.408966 1.77598 0.408966H18.7076C19.0818 0.408966 19.4407 0.557621 19.7053 0.822229C19.9699 1.08684 20.1185 1.44572 20.1185 1.81993C20.1185 2.19414 19.9699 2.55303 19.7053 2.81763C19.4407 3.08224 19.0818 3.2309 18.7076 3.2309H1.77598C1.40177 3.2309 1.04288 3.08224 0.778275 2.81763C0.513668 2.55303 0.365013 2.19414 0.365013 1.81993Z" fill="#AB72DB"/>
<path fill-rule="evenodd" clip-rule="evenodd" d="M0.365028 8.87474C0.365028 8.50053 0.513683 8.14165 0.778291 7.87704C1.0429 7.61243 1.40178 7.46378 1.77599 7.46378H10.2418C10.616 7.46378 10.9749 7.61243 11.2395 7.87704C11.5041 8.14165 11.6528 8.50053 11.6528 8.87474C11.6528 9.24895 11.5041 9.60784 11.2395 9.87244C10.9749 10.1371 10.616 10.2857 10.2418 10.2857H1.77599C1.40178 10.2857 1.0429 10.1371 0.778291 9.87244C0.513683 9.60784 0.365028 9.24895 0.365028 8.87474Z" fill="#AB72DB"/>
<path fill-rule="evenodd" clip-rule="evenodd" d="M0.365028 15.9297C0.365028 15.5555 0.513683 15.1966 0.77829 14.932C1.0429 14.6674 1.40178 14.5187 1.77599 14.5187H18.7076C19.0818 14.5187 19.4407 14.6674 19.7053 14.932C19.9699 15.1966 20.1185 15.5555 20.1185 15.9297C20.1185 16.3039 19.9699 16.6628 19.7053 16.9274C19.4407 17.192 19.0818 17.3406 18.7076 17.3406H1.77599C1.40178 17.3406 1.0429 17.192 0.77829 16.9274C0.513683 16.6628 0.365028 16.3039 0.365028 15.9297Z" fill="#AB72DB"/>
</svg>
