<svg width="58" height="58" viewBox="0 0 58 58" fill="none" xmlns="http://www.w3.org/2000/svg">
<path d="M49.5417 50.7503H15.7083C13.05 50.7503 10.875 48.5753 10.875 45.917V21.7503C10.875 19.092 13.05 16.917 15.7083 16.917H49.5417C52.2 16.917 54.375 19.092 54.375 21.7503V45.917C54.375 48.5753 52.2 50.7503 49.5417 50.7503Z" fill="#4350D2"/>
<path d="M42.2917 43.5003H8.45833C5.8 43.5003 3.625 41.3253 3.625 38.667V14.5003C3.625 11.842 5.8 9.66699 8.45833 9.66699H42.2917C44.95 9.66699 47.125 11.842 47.125 14.5003V38.667C47.125 41.3253 44.95 43.5003 42.2917 43.5003Z" fill="#6D7AFD"/>
<path d="M36.25 22.958C38.252 22.958 39.875 21.335 39.875 19.333C39.875 17.331 38.252 15.708 36.25 15.708C34.248 15.708 32.625 17.331 32.625 19.333C32.625 21.335 34.248 22.958 36.25 22.958Z" fill="#F2F7FA"/>
<path d="M20.5415 21.6289L9.6665 37.4581H31.4165L20.5415 21.6289Z" fill="#F2F7FA"/>
<path d="M33.8335 28.3955L26.5835 37.458H41.0835L33.8335 28.3955Z" fill="#F2F7FA"/>
</svg>
