<svg xmlns="http://www.w3.org/2000/svg" width="26.009" height="28.176" viewBox="0 0 26.009 28.176">
  <path id="icons8-home" d="M30.2,32.176H23.7a1.806,1.806,0,0,1-1.806-1.806v-6.5a1.445,1.445,0,0,0-1.445-1.445h-2.89a1.445,1.445,0,0,0-1.445,1.445v6.5a1.806,1.806,0,0,1-1.806,1.806h-6.5A1.806,1.806,0,0,1,6,30.37V16.58a5.42,5.42,0,0,1,2.066-4.257L18.333,4.232a1.086,1.086,0,0,1,1.342,0l10.269,8.091a5.418,5.418,0,0,1,2.065,4.256V30.37A1.806,1.806,0,0,1,30.2,32.176Z" transform="translate(-6 -4)" fill="#fff"/>
</svg>
