<svg width="28" height="27" viewBox="0 0 28 27" fill="none" xmlns="http://www.w3.org/2000/svg">
<path d="M26.6159 12.4537L22.5936 8.13416V3.14437C22.5936 2.24214 21.9128 1.51096 21.0714 1.51096C20.232 1.51096 19.5512 2.24214 19.5512 3.14437V4.86695L16.5563 1.6506C15.0756 0.0613172 12.5011 0.0641363 11.0238 1.65347L0.966635 12.4537C0.372938 13.0925 0.372938 14.1262 0.966635 14.7641C1.5606 15.4028 2.52502 15.4028 3.11877 14.7641L13.175 3.96357C13.5026 3.6136 14.08 3.6136 14.4059 3.96254L24.4638 14.7641C24.762 15.0835 25.1509 15.2423 25.5396 15.2423C25.9291 15.2423 26.3186 15.0833 26.6159 14.7641C27.2098 14.1263 27.2098 13.0926 26.6159 12.4537Z" fill="#B978E1"/>
<path d="M14.3194 7.06416C14.0272 6.75055 13.5541 6.75055 13.2628 7.06416L4.41648 16.5615C4.27681 16.7114 4.19763 16.9161 4.19763 17.1297V24.0567C4.19763 25.6821 5.42488 27 6.93843 27H11.3182V19.7158H16.263V27H20.6429C22.1564 27 23.3836 25.6821 23.3836 24.0567V17.1297C23.3836 16.9161 23.3051 16.7114 23.1648 16.5615L14.3194 7.06416Z" fill="url(#paint0_linear_2_294)"/>
<defs>
<linearGradient id="paint0_linear_2_294" x1="13.7906" y1="6.82895" x2="13.7906" y2="27" gradientUnits="userSpaceOnUse">
<stop stop-color="#BD7AE3"/>
<stop offset="1" stop-color="#8461C9"/>
</linearGradient>
</defs>
</svg>
