<svg xmlns="http://www.w3.org/2000/svg" width="44.02" height="64" viewBox="0 0 44.02 64">
  <g id="_81d37c57afe89cbba576a29b951183de" data-name="81d37c57afe89cbba576a29b951183de" transform="translate(-9.99)">
    <path id="Path_2824" data-name="Path 2824" d="M54.01,58.74C54.01,61.65,44.15,64,32,64S9.99,61.65,9.99,58.74c0-2.6,7.9-4.74,18.26-5.18h7.5c10.37.44,18.26,2.58,18.26,5.18Z" fill="#e3e2e1"/>
    <path id="Path_2825" data-name="Path 2825" d="M32,0A20.451,20.451,0,0,0,11.54,20.45C11.54,31.75,32,58.74,32,58.74S52.45,31.75,52.45,20.45A20.443,20.443,0,0,0,32,0Zm0,33.99A13.54,13.54,0,1,1,45.54,20.45,13.537,13.537,0,0,1,32,33.99Z" fill="#e82327"/>
  </g>
</svg>
