<svg id="envelope" xmlns="http://www.w3.org/2000/svg" width="18.028" height="16.525" viewBox="0 0 18.028 16.525">
  <path id="Path_15" data-name="Path 15" d="M17.993,5.542,11.67,11.561a3.9,3.9,0,0,1-5.312,0L.035,5.542C.024,5.655,0,5.757,0,5.869v8.58a3.673,3.673,0,0,0,3.756,3.575H14.272a3.673,3.673,0,0,0,3.756-3.575V5.869C18.028,5.757,18,5.655,17.993,5.542Z" transform="translate(0 -1.498)" fill="#fff"/>
  <path id="Path_16" data-name="Path 16" d="M10.67,9.854l6.777-7.006A3.676,3.676,0,0,0,14.289,1H3.9A3.676,3.676,0,0,0,.744,2.849L7.521,9.854a2.18,2.18,0,0,0,3.149,0Z" transform="translate(-0.082 -1)" fill="#fff"/>
</svg>
