<svg xmlns="http://www.w3.org/2000/svg" width="20.218" height="18.563" viewBox="0 0 20.218 18.563">
  <path id="tachometer-alt-slow" d="M0,11.125a10.141,10.141,0,0,0,4.313,8.284l.219.154H15.718l.219-.154C23.977,13.8,19.931.983,10.125,1A10.136,10.136,0,0,0,0,11.125Zm14.021,4.429c4.831-4.287.2-12.131-5.875-9.987L6.859,4.28C14.81.61,21.637,10.932,15.137,16.821ZM8.438,11.125a1.7,1.7,0,0,1,.062-.432L4.466,6.659,5.659,5.466,9.693,9.5a1.687,1.687,0,1,1-1.256,1.625Zm-5.906,0A7.534,7.534,0,0,1,3.28,7.859L4.567,9.146a5.9,5.9,0,0,0,1.661,6.407L5.113,16.819A7.594,7.594,0,0,1,2.531,11.125Z" transform="translate(0 -1)" fill="#001552"/>
</svg>
