<svg xmlns="http://www.w3.org/2000/svg" width="29" height="29" viewBox="0 0 29 29">
  <g id="Layer_2" data-name="Layer 2" transform="translate(0.155)">
    <g id="invisible_box" data-name="invisible box">
      <rect id="Rectangle_524" data-name="Rectangle 524" width="29" height="29" transform="translate(-0.155)" fill="none"/>
    </g>
    <g id="icons_Q2" data-name="icons Q2" transform="translate(1.203 2.528)">
      <path id="Path_61" data-name="Path 61" d="M27.279,4.441h-.3L19.756,6.367h-.6L11.329,4.2h-.6L2.9,6.246A1.144,1.144,0,0,0,2,7.39v19.2a1.2,1.2,0,0,0,1.2,1.2h.3l7.223-1.926h.6l7.825,2.167h.6l7.825-2.107a1.144,1.144,0,0,0,.9-1.083V5.645A1.2,1.2,0,0,0,27.279,4.441ZM12.232,6.909l6.019,1.745V25.326l-6.019-1.745ZM4.407,8.353,9.824,6.909V23.581L4.407,25.025ZM26.075,23.882l-5.417,1.445V8.654l5.417-1.445Z" transform="translate(-2 -4.2)" fill="#c98537"/>
    </g>
  </g>
</svg>
