<svg width="20" height="19" viewBox="0 0 20 19" fill="none" xmlns="http://www.w3.org/2000/svg">
<path d="M19.0194 17.196C19.2943 17.4708 19.2943 17.9164 19.0194 18.1912C18.7446 18.466 18.2991 18.466 18.0242 18.1912L14.6464 14.8133C14.3716 14.5385 14.3716 14.093 14.6464 13.8181C14.9212 13.5433 15.3668 13.5433 15.6416 13.8181L19.0194 17.196ZM8.38828 15.0195C4.26856 15.0195 0.928864 11.6798 0.928864 7.56004C0.928864 3.44031 4.26856 0.100616 8.38828 0.100616C12.508 0.100616 15.8477 3.44031 15.8477 7.56004C15.8477 11.6798 12.508 15.0195 8.38828 15.0195ZM8.38828 13.612C11.7307 13.612 14.4403 10.9025 14.4403 7.56004C14.4403 4.21762 11.7307 1.50805 8.38828 1.50805C5.04587 1.50805 2.3363 4.21762 2.3363 7.56004C2.3363 10.9025 5.04587 13.612 8.38828 13.612ZM4.9166 6.99706C4.9166 7.25616 4.70656 7.46621 4.44746 7.46621C4.18836 7.46621 3.97831 7.25616 3.97831 6.99706C3.97831 4.87242 5.70067 3.15007 7.82531 3.15007C8.08441 3.15007 8.29446 3.36011 8.29446 3.61921C8.29446 3.87831 8.08441 4.08836 7.82531 4.08836C6.21888 4.08836 4.9166 5.39063 4.9166 6.99706Z" fill="#D0C9D6"/>
</svg>
