<svg xmlns="http://www.w3.org/2000/svg" width="29" height="29" viewBox="0 0 29 29">
  <g id="Layer_2" data-name="Layer 2" transform="translate(0 -0.212)">
    <g id="invisible_box" data-name="invisible box">
      <rect id="Rectangle_519" data-name="Rectangle 519" width="29" height="29" transform="translate(0 0.212)" fill="none"/>
    </g>
    <g id="icons_Q2" data-name="icons Q2" transform="translate(1.202 1.202)">
      <path id="Path_49" data-name="Path 49" d="M38.413,5.606h-2.4V3.2a1.2,1.2,0,1,0-2.4,0v2.4H31.2a1.2,1.2,0,0,0,0,2.4h2.4v2.4a1.2,1.2,0,1,0,2.4,0v-2.4h2.4a1.2,1.2,0,0,0,0-2.4Z" transform="translate(-13.173 -2)" fill="#9d4edd"/>
      <g id="Group_58" data-name="Group 58">
        <path id="Path_50" data-name="Path 50" d="M23.207,16.447V13.2a1.2,1.2,0,0,0-2.4,0v3.245A3.065,3.065,0,0,0,19,19.211a3,3,0,0,0,6.009,0A3.065,3.065,0,0,0,23.207,16.447Z" transform="translate(-8.784 -5.991)" fill="#9d4edd"/>
        <path id="Path_51" data-name="Path 51" d="M15.22,2h1.2V5.606a1.2,1.2,0,0,1-2.4,0V4.464a11.778,11.778,0,0,0-2.945.781A8.714,8.714,0,0,0,8.49,6.807l.781.781A1.19,1.19,0,1,1,7.588,9.271L6.807,8.49a10.637,10.637,0,0,0-2.344,5.529H5.605a1.2,1.2,0,1,1,0,2.4H4.464a11.057,11.057,0,0,0,2.223,5.408l.9-.841a1.2,1.2,0,0,1,1.683,1.683l-1.8,1.8h0a1.142,1.142,0,0,1-1.683,0A12.98,12.98,0,0,1,2,15.221,13.281,13.281,0,0,1,15.22,2Z" transform="translate(-1.999 -2)" fill="#9d4edd"/>
        <path id="Path_52" data-name="Path 52" d="M40.852,23.2a13.1,13.1,0,0,1-3.786,9.254,1.2,1.2,0,0,1-1.623.06l-1.863-1.863a1.2,1.2,0,1,1,1.683-1.683l.9.841A11.057,11.057,0,0,0,38.388,24.4H37.246a1.2,1.2,0,0,1,0-2.4h3.546A8.051,8.051,0,0,1,40.852,23.2Z" transform="translate(-14.411 -9.981)" fill="#9d4edd"/>
      </g>
    </g>
  </g>
</svg>
