<svg xmlns="http://www.w3.org/2000/svg" width="18.864" height="18.834" viewBox="0 0 18.864 18.834">
  <g id="chart-pie-alt" transform="translate(0)">
    <path id="Path_17" data-name="Path 17" d="M15.386,56.183h-3.75a1.592,1.592,0,0,1-1.591-1.591V50.831a2.387,2.387,0,0,0-.928-1.9,2.285,2.285,0,0,0-1.974-.425A8.729,8.729,0,1,0,17.715,59.093a2.289,2.289,0,0,0-.424-1.977A2.431,2.431,0,0,0,15.386,56.183Z" transform="translate(-0.515 -46.873)" fill="#001552"/>
    <path id="Path_18" data-name="Path 18" d="M306.84,12.086a7.9,7.9,0,0,0-.8-1.927,8.029,8.029,0,0,0-4.821-3.7,3.3,3.3,0,0,0-.433-.057,1.5,1.5,0,0,0-.932.3,1.634,1.634,0,0,0-.628.938,1.6,1.6,0,0,0-.043.358v3.74a2.387,2.387,0,0,0,2.387,2.387h3.755a1.561,1.561,0,0,0,1.262-.637,1.622,1.622,0,0,0,.318-1.019A1.679,1.679,0,0,0,306.84,12.086Z" transform="translate(-288.039 -6.4)" fill="#001552"/>
  </g>
</svg>
