<svg id="Layer_2" data-name="Layer 2" xmlns="http://www.w3.org/2000/svg" width="29" height="29" viewBox="0 0 29 29">
  <g id="invisible_box" data-name="invisible box">
    <rect id="Rectangle_525" data-name="Rectangle 525" width="29" height="29" fill="none"/>
    <rect id="Rectangle_526" data-name="Rectangle 526" width="29" height="29" fill="none"/>
    <rect id="Rectangle_527" data-name="Rectangle 527" width="29" height="29" fill="none"/>
  </g>
  <g id="icons_Q2" data-name="icons Q2" transform="translate(4.201 1.2)">
    <path id="Path_62" data-name="Path 62" d="M17.2,4.4c4.441,0,7.8,3.6,7.8,8.4s-5.161,10.023-7.8,12.724C14.562,22.826,9.4,17.3,9.4,12.8s3.361-8.4,7.8-8.4m0-2.4C11.261,2,7,6.861,7,12.8s6.9,12.784,9.363,15.244a1.14,1.14,0,0,0,1.68,0c2.461-2.461,9.363-9.183,9.363-15.244S23.145,2,17.2,2Z" transform="translate(-7 -2)" fill="#9d4edd"/>
    <path id="Path_63" data-name="Path 63" d="M24.4,16.6H22V14.2a1.2,1.2,0,0,0-2.4,0v2.4H17.2a1.2,1.2,0,0,0,0,2.4h2.4v2.4a1.2,1.2,0,0,0,2.4,0V19h2.4a1.2,1.2,0,0,0,0-2.4Z" transform="translate(-10.598 -6.398)" fill="#9d4edd"/>
  </g>
</svg>
